<?xml version="1.0" encoding="utf-8"?>
<!-- Generator: Adobe Illustrator 27.5.0, SVG Export Plug-In . SVG Version: 6.00 Build 0)  -->
<svg version="1.1" xmlns="http://www.w3.org/2000/svg" xmlns:xlink="http://www.w3.org/1999/xlink" x="0px" y="0px"
	 viewBox="0 0 500 500" style="enable-background:new 0 0 500 500;" xml:space="preserve">
<g id="Background_Complete">
	<g>
		<g>
			<rect y="382.398" style="fill:#E0E0E0;" width="500" height="0.25"/>
			<rect x="52.459" y="398.083" style="fill:#E0E0E0;" width="27.374" height="0.25"/>
			<rect x="86.417" y="398.083" style="fill:#E0E0E0;" width="8.693" height="0.25"/>
			<rect x="230.641" y="394.625" style="fill:#E0E0E0;" width="19.359" height="0.25"/>
			<rect x="374.774" y="394.5" style="fill:#E0E0E0;" width="43.193" height="0.25"/>
			<rect x="426.87" y="394.5" style="fill:#E0E0E0;" width="6.333" height="0.25"/>
			<rect x="246.991" y="388.583" style="fill:#E0E0E0;" width="93.676" height="0.25"/>
			<path style="fill:#E0E0E0;" d="M237.014,337.8H43.915c-3.147,0-5.708-2.561-5.708-5.708V60.66c0-3.147,2.561-5.708,5.708-5.708
				h193.099c3.146,0,5.707,2.561,5.707,5.708v271.432C242.721,335.239,240.16,337.8,237.014,337.8z M43.915,55.203
				c-3.01,0-5.458,2.448-5.458,5.458v271.432c0,3.01,2.448,5.458,5.458,5.458h193.099c3.009,0,5.457-2.448,5.457-5.458V60.66
				c0-3.009-2.448-5.458-5.457-5.458H43.915z"/>
			<path style="fill:#E0E0E0;" d="M453.31,337.8H260.212c-3.146,0-5.707-2.561-5.707-5.708V60.66c0-3.147,2.561-5.708,5.707-5.708
				H453.31c3.148,0,5.708,2.561,5.708,5.708v271.432C459.019,335.239,456.458,337.8,453.31,337.8z M260.212,55.203
				c-3.009,0-5.457,2.448-5.457,5.458v271.432c0,3.01,2.448,5.458,5.457,5.458H453.31c3.01,0,5.458-2.448,5.458-5.458V60.66
				c0-3.009-2.448-5.458-5.458-5.458H260.212z"/>
		</g>
		<g>
			<g>
				<g>
					<path style="fill:#E0E0E0;" d="M312.215,50.971c0-2.266,1.854-4.12,4.12-4.12h128.339c2.266,0,4.12,1.854,4.12,4.12v13.262
						H312.215V50.971z"/>
					<path style="fill:#FFFFFF;" d="M342.411,55.542c0,1.721,1.395,3.115,3.115,3.115c1.721,0,3.115-1.395,3.115-3.115
						s-1.395-3.115-3.115-3.115C343.806,52.426,342.411,53.821,342.411,55.542z"/>
					<path style="fill:#FFFFFF;" d="M331.373,55.542c0,1.721,1.395,3.115,3.115,3.115c1.721,0,3.115-1.395,3.115-3.115
						s-1.395-3.115-3.115-3.115C332.768,52.426,331.373,53.821,331.373,55.542z"/>
					<path style="fill:#FFFFFF;" d="M320.335,55.542c0,1.721,1.395,3.115,3.115,3.115c1.72,0,3.115-1.395,3.115-3.115
						s-1.395-3.115-3.115-3.115C321.73,52.426,320.335,53.821,320.335,55.542z"/>
					<path style="fill:#F0F0F0;" d="M444.674,153.552H316.335c-2.266,0-4.12-1.854-4.12-4.12v-85.2h136.578v85.2
						C448.794,151.698,446.94,153.552,444.674,153.552z"/>
				</g>
				<g>
					<path style="fill:#F0F0F0;" d="M303.022,64.76c0-2.266,1.854-4.12,4.12-4.12H435.48c2.266,0,4.12,1.854,4.12,4.12v13.262
						H303.022V64.76z"/>
					<path style="fill:#E0E0E0;" d="M333.218,69.332c0,1.721,1.395,3.115,3.115,3.115c1.721,0,3.115-1.395,3.115-3.115
						c0-1.72-1.395-3.115-3.115-3.115C334.613,66.216,333.218,67.611,333.218,69.332z"/>
					<path style="fill:#E0E0E0;" d="M322.18,69.332c0,1.721,1.395,3.115,3.115,3.115c1.721,0,3.115-1.395,3.115-3.115
						c0-1.72-1.395-3.115-3.115-3.115C323.575,66.216,322.18,67.611,322.18,69.332z"/>
					<path style="fill:#E0E0E0;" d="M311.142,69.332c0,1.721,1.395,3.115,3.115,3.115c1.721,0,3.115-1.395,3.115-3.115
						c0-1.72-1.395-3.115-3.115-3.115C312.536,66.216,311.142,67.611,311.142,69.332z"/>
					<path style="fill:#FAFAFA;" d="M435.48,167.342H307.142c-2.266,0-4.12-1.854-4.12-4.12V78.022H439.6v85.199
						C439.6,165.488,437.746,167.342,435.48,167.342z"/>
				</g>
				<g>
					<path style="fill:#FAFAFA;" d="M293.829,78.55c0-2.266,1.854-4.12,4.12-4.12h128.339c2.266,0,4.12,1.854,4.12,4.12v13.262
						H293.829V78.55z"/>
					<path style="fill:#F0F0F0;" d="M324.025,83.122c0,1.721,1.395,3.115,3.115,3.115c1.72,0,3.115-1.395,3.115-3.115
						c0-1.72-1.395-3.115-3.115-3.115C325.419,80.006,324.025,81.401,324.025,83.122z"/>
					<path style="fill:#F0F0F0;" d="M312.986,83.122c0,1.721,1.395,3.115,3.115,3.115s3.115-1.395,3.115-3.115
						c0-1.72-1.395-3.115-3.115-3.115S312.986,81.401,312.986,83.122z"/>
					<circle style="fill:#F0F0F0;" cx="305.063" cy="83.122" r="3.115"/>
					<path style="fill:#E0E0E0;" d="M426.287,181.132H297.949c-2.266,0-4.12-1.854-4.12-4.12V91.813h136.578v85.199
						C430.407,179.278,428.553,181.132,426.287,181.132z"/>
				</g>
			</g>
			<g>
				<g>
					<path style="fill:#E0E0E0;" d="M79.132,127.883c0-2.149,1.758-3.908,3.908-3.908h193.387c2.149,0,3.908,1.758,3.908,3.908
						v12.579H79.132V127.883z"/>
					<path style="fill:#FFFFFF;" d="M110.727,135.43c-1.771,0-3.212-1.44-3.212-3.211c0-1.771,1.441-3.211,3.212-3.211
						c1.771,0,3.211,1.44,3.211,3.211C113.937,133.989,112.497,135.43,110.727,135.43z M110.727,129.52
						c-1.488,0-2.699,1.211-2.699,2.698c0,1.488,1.211,2.698,2.699,2.698c1.488,0,2.698-1.211,2.698-2.698
						C113.425,130.731,112.214,129.52,110.727,129.52z"/>
					<path style="fill:#FFFFFF;" d="M100.257,135.43c-1.771,0-3.211-1.44-3.211-3.211c0-1.771,1.44-3.211,3.211-3.211
						s3.211,1.44,3.211,3.211C103.468,133.989,102.027,135.43,100.257,135.43z M100.257,129.52c-1.488,0-2.698,1.211-2.698,2.698
						c0,1.488,1.21,2.698,2.698,2.698c1.488,0,2.698-1.211,2.698-2.698C102.955,130.731,101.745,129.52,100.257,129.52z"/>
					<path style="fill:#FFFFFF;" d="M89.788,135.43c-1.771,0-3.211-1.44-3.211-3.211c0-1.771,1.44-3.211,3.211-3.211
						c1.77,0,3.211,1.44,3.211,3.211C92.998,133.989,91.558,135.43,89.788,135.43z M89.788,129.52c-1.488,0-2.699,1.211-2.699,2.698
						c0,1.488,1.21,2.698,2.699,2.698c1.488,0,2.698-1.211,2.698-2.698C92.486,130.731,91.275,129.52,89.788,129.52z"/>
					<path style="fill:#F0F0F0;" d="M276.426,245.029H83.039c-2.149,0-3.908-1.758-3.908-3.908v-100.66h201.202v100.66
						C280.333,243.271,278.575,245.029,276.426,245.029z"/>
				</g>
				<g>
					<path style="fill:#FAFAFA;" d="M70.412,154.406c0-2.149,1.758-3.908,3.907-3.908h193.387c2.149,0,3.908,1.758,3.908,3.908
						v12.579H70.412V154.406z"/>
					<path style="fill:#E0E0E0;" d="M102.007,161.952c-1.771,0-3.211-1.44-3.211-3.211c0-1.771,1.44-3.211,3.211-3.211
						s3.211,1.44,3.211,3.211C105.218,160.512,103.777,161.952,102.007,161.952z M102.007,156.042c-1.488,0-2.698,1.21-2.698,2.699
						c0,1.488,1.21,2.698,2.698,2.698c1.488,0,2.698-1.21,2.698-2.698C104.705,157.253,103.495,156.042,102.007,156.042z"/>
					<path style="fill:#E0E0E0;" d="M91.537,161.952c-1.771,0-3.211-1.44-3.211-3.211c0-1.771,1.44-3.211,3.211-3.211
						c1.771,0,3.211,1.44,3.211,3.211C94.748,160.512,93.308,161.952,91.537,161.952z M91.537,156.042
						c-1.488,0-2.698,1.21-2.698,2.699c0,1.488,1.21,2.698,2.698,2.698c1.488,0,2.699-1.21,2.699-2.698
						C94.236,157.253,93.025,156.042,91.537,156.042z"/>
					<path style="fill:#E0E0E0;" d="M81.068,161.952c-1.771,0-3.211-1.44-3.211-3.211c0-1.771,1.44-3.211,3.211-3.211
						s3.211,1.44,3.211,3.211C84.279,160.512,82.838,161.952,81.068,161.952z M81.068,156.042c-1.488,0-2.698,1.21-2.698,2.699
						c0,1.488,1.211,2.698,2.698,2.698s2.698-1.21,2.698-2.698C83.766,157.253,82.556,156.042,81.068,156.042z"/>
					<path style="fill:#F0F0F0;" d="M267.706,291.402H74.319c-2.149,0-3.907-1.758-3.907-3.908v-120.51h201.202v120.51
						C271.614,289.644,269.855,291.402,267.706,291.402z"/>
				</g>
			</g>
			<g>
				<path style="fill:#E0E0E0;" d="M136.459,59.839H65.976c-2.236,0-4.064-1.829-4.064-4.065l0,0c0-2.236,1.829-4.064,4.064-4.064
					h70.483c2.236,0,4.065,1.829,4.065,4.064l0,0C140.523,58.009,138.694,59.839,136.459,59.839z"/>
				<path style="fill:#F0F0F0;" d="M165.73,76.879l-99.527-0.403c-2.236-0.009-4.057-1.845-4.048-4.081l0,0
					c0.009-2.235,1.846-4.057,4.081-4.048l99.527,0.403c2.235,0.009,4.057,1.846,4.048,4.081l0,0
					C169.802,75.067,167.966,76.888,165.73,76.879z"/>
				<path style="fill:#E6E6E6;" d="M112.753,95.706H65.976c-2.236,0-4.064-1.829-4.064-4.064l0,0c0-2.235,1.829-4.065,4.064-4.065
					h46.777c2.236,0,4.065,1.829,4.065,4.065l0,0C116.817,93.877,114.988,95.706,112.753,95.706z"/>
			</g>
			<g>
				<path style="fill:#E0E0E0;" d="M435.838,210.784h-21.711c-1.702,0-3.095-1.393-3.095-3.095l0,0c0-1.702,1.393-3.095,3.095-3.095
					h21.711c1.702,0,3.095,1.393,3.095,3.095l0,0C438.933,209.391,437.54,210.784,435.838,210.784z"/>
				<path style="fill:#F0F0F0;" d="M446.147,223.995h-32.02c-1.702,0-3.095-1.393-3.095-3.095v0c0-1.702,1.393-3.095,3.095-3.095
					h32.02c1.702,0,3.095,1.393,3.095,3.095v0C449.241,222.602,447.849,223.995,446.147,223.995z"/>
				<path style="fill:#E6E6E6;" d="M427.425,238.093h-13.298c-1.702,0-3.095-1.393-3.095-3.095l0,0c0-1.702,1.393-3.095,3.095-3.095
					h13.298c1.702,0,3.095,1.393,3.095,3.095l0,0C430.52,236.7,429.127,238.093,427.425,238.093z"/>
				<path style="fill:#F0F0F0;" d="M436.56,251.304h-22.433c-1.702,0-3.095-1.393-3.095-3.095l0,0c0-1.702,1.393-3.095,3.095-3.095
					h22.433c1.702,0,3.095,1.393,3.095,3.095l0,0C439.654,249.911,438.262,251.304,436.56,251.304z"/>
				<path style="fill:#E6E6E6;" d="M432.951,265.402h-18.824c-1.702,0-3.095-1.393-3.095-3.095l0,0c0-1.702,1.393-3.095,3.095-3.095
					h18.824c1.702,0,3.095,1.393,3.095,3.095l0,0C436.046,264.01,434.653,265.402,432.951,265.402z"/>
			</g>
			<g>
				<path style="fill:#E0E0E0;" d="M361.446,227.089h-64.523c-1.702,0-3.095-1.393-3.095-3.095l0,0c0-1.702,1.393-3.095,3.095-3.095
					h64.523c1.702,0,3.095,1.393,3.095,3.095l0,0C364.541,225.697,363.148,227.089,361.446,227.089z"/>
				<path style="fill:#F0F0F0;" d="M387.572,240.3h-90.649c-1.702,0-3.095-1.393-3.095-3.095l0,0c0-1.702,1.393-3.095,3.095-3.095
					h90.649c1.702,0,3.095,1.393,3.095,3.095l0,0C390.667,238.908,389.274,240.3,387.572,240.3z"/>
				<path style="fill:#E6E6E6;" d="M340.123,254.399h-43.199c-1.702,0-3.095-1.393-3.095-3.095l0,0c0-1.702,1.393-3.095,3.095-3.095
					h43.199c1.702,0,3.095,1.393,3.095,3.095l0,0C343.217,253.006,341.825,254.399,340.123,254.399z"/>
				<path style="fill:#F0F0F0;" d="M363.274,267.61h-66.351c-1.702,0-3.095-1.393-3.095-3.095l0,0c0-1.702,1.393-3.095,3.095-3.095
					h66.351c1.702,0,3.095,1.393,3.095,3.095l0,0C366.369,266.217,364.976,267.61,363.274,267.61z"/>
				<path style="fill:#E6E6E6;" d="M354.129,281.708h-57.206c-1.702,0-3.095-1.393-3.095-3.095l0,0c0-1.702,1.393-3.095,3.095-3.095
					h57.206c1.702,0,3.095,1.393,3.095,3.095l0,0C357.224,280.315,355.831,281.708,354.129,281.708z"/>
			</g>
		</g>
	</g>
</g>
<g id="Background_Simple" style="display:none;">
	<path style="display:inline;fill:#407BFF;" d="M422.888,240.375C454.917,18.468,37.266,53.53,88.607,211.755
		c30.271,93.288,117.206,17.246,176.295,45.997c33.097,16.104,29.289,63.862,77.655,64.929
		C386.214,323.642,417.375,278.568,422.888,240.375z"/>
	<path style="display:inline;opacity:0.9;fill:#FFFFFF;" d="M422.888,240.375C454.917,18.468,37.266,53.53,88.607,211.755
		c30.271,93.288,117.206,17.246,176.295,45.997c33.097,16.104,29.289,63.862,77.655,64.929
		C386.214,323.642,417.375,278.568,422.888,240.375z"/>
</g>
<g id="Shadow">
	<ellipse style="fill:#F5F5F5;" cx="250" cy="416.238" rx="193.889" ry="11.323"/>
</g>
<g id="Graphics">
	<g>
		<path style="opacity:0.7;fill:#407BFF;" d="M350.37,347.784H227.129c-17.441,0-30.964-14.27-30.05-31.712l10.542-201.161
			c0.914-17.441,15.932-31.712,33.374-31.712h123.241c17.441,0,30.964,14.27,30.05,31.712l-10.543,201.161
			C382.829,333.513,367.811,347.784,350.37,347.784z"/>
		<rect x="269.924" y="71.612" style="fill:#407BFF;" width="7.667" height="1"/>
		<rect x="236.696" y="71.612" style="fill:#407BFF;" width="26.667" height="1"/>
		
			<rect x="190.836" y="143.512" transform="matrix(0.0528 -0.9986 0.9986 0.0528 40.5497 330.7734)" style="fill:#407BFF;" width="7.595" height="1"/>
		<path style="opacity:0.6;fill:#407BFF;" d="M343.283,340.697h-123.24c-17.441,0-30.964-14.27-30.05-31.712l10.542-201.161
			c0.914-17.441,15.932-31.712,33.374-31.712h123.241c17.441,0,30.964,14.27,30.05,31.712l-10.542,201.161
			C375.743,326.427,360.724,340.697,343.283,340.697z"/>
		<g>
			<defs>
				<path id="SVGID_1_" d="M343.283,340.697h-123.24c-17.441,0-30.964-14.27-30.05-31.712l10.542-201.161
					c0.914-17.441,15.932-31.712,33.374-31.712h123.241c17.441,0,30.964,14.27,30.05,31.712l-10.542,201.161
					C375.743,326.427,360.724,340.697,343.283,340.697z"/>
			</defs>
			<clipPath id="SVGID_00000070816777066189656920000010817024739340422017_">
				<use xlink:href="#SVGID_1_"  style="overflow:visible;"/>
			</clipPath>
			<g style="clip-path:url(#SVGID_00000070816777066189656920000010817024739340422017_);">
				<g>
					<path style="fill:#407BFF;" d="M243.095,312.232c-29.304,0-56.27-11.409-75.929-32.126
						c-19.698-20.758-29.699-48.359-28.16-77.72c1.011-19.286,7.081-38.256,17.555-54.861c10.16-16.108,24.227-29.689,40.678-39.273
						c0.059-0.034,0.129-0.043,0.195-0.024c0.066,0.019,0.121,0.063,0.152,0.124l10.099,19.245c0.358-0.2,0.72-0.394,1.082-0.588
						l0.397-0.214c0.059-0.032,0.129-0.038,0.191-0.019c0.064,0.02,0.118,0.064,0.148,0.123l2.754,5.248
						c0.063,0.12,0.019,0.269-0.099,0.335c-25.67,14.346-42.554,41.143-44.063,69.932c-1.131,21.58,6.218,41.866,20.694,57.121
						c14.447,15.224,34.266,23.608,55.804,23.608c0.068,0,0.134,0.028,0.181,0.078c0.047,0.05,0.072,0.116,0.068,0.185
						l-1.499,28.591C243.337,312.128,243.227,312.232,243.095,312.232z M197.265,108.815c-33.64,19.702-55.765,55.542-57.76,93.597
						c-1.531,29.223,8.421,56.693,28.024,77.35c19.511,20.561,46.254,31.908,75.329,31.97l1.473-28.091
						c-21.576-0.068-41.419-8.502-55.903-23.765c-14.571-15.355-21.969-35.772-20.831-57.491
						c1.513-28.88,18.406-55.765,44.105-70.223l-2.523-4.809l-0.175,0.095c-0.434,0.233-0.869,0.466-1.297,0.709
						c-0.06,0.034-0.129,0.041-0.194,0.022c-0.065-0.019-0.119-0.064-0.15-0.124L197.265,108.815z"/>
					<path style="fill:#407BFF;" d="M250.206,322.657c-0.068,0-0.134-0.028-0.181-0.078c-0.047-0.05-0.072-0.116-0.068-0.185
						l1.603-30.591c0.007-0.133,0.117-0.237,0.25-0.237c47.654,0,88.456-38.77,90.952-86.424c0.007-0.133,0.117-0.237,0.25-0.237
						h7.281c0.136,0,0.246,0.108,0.25,0.244c0.061,2.48,0.031,4.985-0.092,7.452h22.487c0.071,0,0.14,0.031,0.186,0.084
						c0.048,0.053,0.07,0.124,0.061,0.195c-3.367,28.441-16.9,55.203-38.109,75.356C312.054,310.11,281.119,322.657,250.206,322.657
						z M252.046,292.066l-1.577,30.091c30.699-0.071,61.398-12.559,84.263-34.285c21.054-20.005,34.515-46.55,37.924-74.771h-22.469
						c-0.068,0-0.134-0.028-0.182-0.078c-0.047-0.049-0.071-0.117-0.068-0.185c0.129-2.458,0.166-4.956,0.11-7.432h-6.8
						C340.619,253.134,299.781,291.939,252.046,292.066z"/>
					<path style="fill:#407BFF;" d="M350.292,205.405c-0.136,0-0.246-0.108-0.25-0.244c-1.272-50.531-42.021-90.113-92.768-90.113
						c-16.564,0-33.119,4.214-47.873,12.186c-0.121,0.065-0.273,0.021-0.338-0.101c-0.066-0.121-0.02-0.273,0.101-0.338
						c14.828-8.012,31.464-12.246,48.111-12.246c24.914,0,48.19,9.333,65.538,26.281c17.262,16.863,27.109,39.706,27.729,64.32
						c0.003,0.138-0.105,0.253-0.244,0.256C350.296,205.405,350.294,205.405,350.292,205.405z"/>
					<path style="fill:#407BFF;" d="M384.8,213.101h-11.862c-0.138,0-0.25-0.112-0.25-0.25s0.112-0.25,0.25-0.25h11.625
						c1.169-23.109-3.766-45.907-14.277-65.943c-15.483-29.466-41.913-51.002-74.425-60.64
						c-34.58-10.253-71.392-5.977-103.678,12.037l5.403,10.297c0.064,0.122,0.017,0.273-0.105,0.337
						c-0.122,0.063-0.273,0.018-0.337-0.105l-5.517-10.513c-0.063-0.12-0.019-0.268,0.099-0.334
						c16.355-9.161,33.935-14.819,52.251-16.818c17.676-1.927,35.181-0.375,52.027,4.619c32.642,9.677,59.18,31.301,74.726,60.887
						c10.589,20.185,15.541,43.159,14.321,66.439C385.043,212.997,384.933,213.101,384.8,213.101z"/>
					<path style="fill:#407BFF;" d="M207.582,128.19c-0.024,0-0.047-0.003-0.071-0.01c-0.065-0.019-0.119-0.064-0.15-0.124
						l-10.218-19.472c-0.064-0.122-0.017-0.273,0.105-0.337c0.122-0.064,0.273-0.017,0.337,0.105l10.099,19.245
						c0.358-0.2,0.72-0.394,1.082-0.588l0.397-0.214c0.12-0.064,0.273-0.021,0.339,0.102c0.065,0.122,0.02,0.273-0.102,0.339
						l-0.398,0.214c-0.434,0.233-0.869,0.466-1.297,0.709C207.667,128.179,207.625,128.19,207.582,128.19z"/>
				</g>
				<g style="opacity:0.3;">
					<path style="fill:#FFFFFF;" d="M243.095,312.232c-29.304,0-56.27-11.409-75.929-32.126
						c-19.698-20.758-29.699-48.359-28.16-77.72c1.011-19.286,7.081-38.256,17.555-54.861c10.16-16.108,24.227-29.689,40.678-39.273
						c0.059-0.034,0.129-0.043,0.195-0.024c0.066,0.019,0.121,0.063,0.152,0.124l10.099,19.245c0.358-0.2,0.72-0.394,1.082-0.588
						l0.397-0.214c0.059-0.032,0.129-0.038,0.191-0.019c0.064,0.02,0.118,0.064,0.148,0.123l2.754,5.248
						c0.063,0.12,0.019,0.269-0.099,0.335c-25.67,14.346-42.554,41.143-44.063,69.932c-1.131,21.58,6.218,41.866,20.694,57.121
						c14.447,15.224,34.266,23.608,55.804,23.608c0.068,0,0.134,0.028,0.181,0.078c0.047,0.05,0.072,0.116,0.068,0.185
						l-1.499,28.591C243.337,312.128,243.227,312.232,243.095,312.232z M197.265,108.815c-33.64,19.702-55.765,55.542-57.76,93.597
						c-1.531,29.223,8.421,56.693,28.024,77.35c19.511,20.561,46.254,31.908,75.329,31.97l1.473-28.091
						c-21.576-0.068-41.419-8.502-55.903-23.765c-14.571-15.355-21.969-35.772-20.831-57.491
						c1.513-28.88,18.406-55.765,44.105-70.223l-2.523-4.809l-0.175,0.095c-0.434,0.233-0.869,0.466-1.297,0.709
						c-0.06,0.034-0.129,0.041-0.194,0.022c-0.065-0.019-0.119-0.064-0.15-0.124L197.265,108.815z"/>
					<path style="fill:#FFFFFF;" d="M250.206,322.657c-0.068,0-0.134-0.028-0.181-0.078c-0.047-0.05-0.072-0.116-0.068-0.185
						l1.603-30.591c0.007-0.133,0.117-0.237,0.25-0.237c47.654,0,88.456-38.77,90.952-86.424c0.007-0.133,0.117-0.237,0.25-0.237
						h7.281c0.136,0,0.246,0.108,0.25,0.244c0.061,2.48,0.031,4.985-0.092,7.452h22.487c0.071,0,0.14,0.031,0.186,0.084
						c0.048,0.053,0.07,0.124,0.061,0.195c-3.367,28.441-16.9,55.203-38.109,75.356C312.054,310.11,281.119,322.657,250.206,322.657
						z M252.046,292.066l-1.577,30.091c30.699-0.071,61.398-12.559,84.263-34.285c21.054-20.005,34.515-46.55,37.924-74.771h-22.469
						c-0.068,0-0.134-0.028-0.182-0.078c-0.047-0.049-0.071-0.117-0.068-0.185c0.129-2.458,0.166-4.956,0.11-7.432h-6.8
						C340.619,253.134,299.781,291.939,252.046,292.066z"/>
					<path style="fill:#FFFFFF;" d="M350.292,205.405c-0.136,0-0.246-0.108-0.25-0.244c-1.272-50.531-42.021-90.113-92.768-90.113
						c-16.564,0-33.119,4.214-47.873,12.186c-0.121,0.065-0.273,0.021-0.338-0.101c-0.066-0.121-0.02-0.273,0.101-0.338
						c14.828-8.012,31.464-12.246,48.111-12.246c24.914,0,48.19,9.333,65.538,26.281c17.262,16.863,27.109,39.706,27.729,64.32
						c0.003,0.138-0.105,0.253-0.244,0.256C350.296,205.405,350.294,205.405,350.292,205.405z"/>
					<path style="fill:#FFFFFF;" d="M384.8,213.101h-11.862c-0.138,0-0.25-0.112-0.25-0.25s0.112-0.25,0.25-0.25h11.625
						c1.169-23.109-3.766-45.907-14.277-65.943c-15.483-29.466-41.913-51.002-74.425-60.64
						c-34.58-10.253-71.392-5.977-103.678,12.037l5.403,10.297c0.064,0.122,0.017,0.273-0.105,0.337
						c-0.122,0.063-0.273,0.018-0.337-0.105l-5.517-10.513c-0.063-0.12-0.019-0.268,0.099-0.334
						c16.355-9.161,33.935-14.819,52.251-16.818c17.676-1.927,35.181-0.375,52.027,4.619c32.642,9.677,59.18,31.301,74.726,60.887
						c10.589,20.185,15.541,43.159,14.321,66.439C385.043,212.997,384.933,213.101,384.8,213.101z"/>
					<path style="fill:#FFFFFF;" d="M207.582,128.19c-0.024,0-0.047-0.003-0.071-0.01c-0.065-0.019-0.119-0.064-0.15-0.124
						l-10.218-19.472c-0.064-0.122-0.017-0.273,0.105-0.337c0.122-0.064,0.273-0.017,0.337,0.105l10.099,19.245
						c0.358-0.2,0.72-0.394,1.082-0.588l0.397-0.214c0.12-0.064,0.273-0.021,0.339,0.102c0.065,0.122,0.02,0.273-0.102,0.339
						l-0.398,0.214c-0.434,0.233-0.869,0.466-1.297,0.709C207.667,128.179,207.625,128.19,207.582,128.19z"/>
				</g>
			</g>
		</g>
		<g>
			<g>
				<path style="fill:#407BFF;" d="M250.828,270.69l-0.963,18.374c-38.885,0-68.771-31.54-66.733-70.424
					c1.366-26.062,16.732-48.833,38.421-60.992l8.353,15.917c-16.043,8.966-27.389,25.792-28.4,45.075
					C199.999,247.378,222.089,270.69,250.828,270.69z"/>
				<path style="opacity:0.6;" d="M250.828,270.69l-0.963,18.374c-38.885,0-68.771-31.54-66.733-70.424
					c1.366-26.062,16.732-48.833,38.421-60.992l8.353,15.917c-16.043,8.966-27.389,25.792-28.4,45.075
					C199.999,247.378,222.089,270.69,250.828,270.69z"/>
			</g>
			<g>
				<path style="fill:#407BFF;" d="M333.737,220.41c-1.047,19.975-10.016,39.161-24.869,53.275
					c-14.854,14.114-34.457,22.078-54.433,22.078l1.03-19.66c30.751,0,57-24.942,58.612-55.693H333.737z"/>
				<path style="opacity:0.3;" d="M333.737,220.41c-1.047,19.975-10.016,39.161-24.869,53.275
					c-14.854,14.114-34.457,22.078-54.433,22.078l1.03-19.66c30.751,0,57-24.942,58.612-55.693H333.737z"/>
			</g>
			<path style="fill:#FAFAFA;" d="M340.934,225.355H318.69c1.825-34.823-24.919-63.014-59.712-63.014
				c-11.478,0-22.404,3.063-31.935,8.445l-10.112-19.27c41.728-23.374,93.536-9.278,114.817,31.225
				C338.534,195.677,341.717,210.397,340.934,225.355z"/>
		</g>
		<g>
			<polygon style="fill:#FAFAFA;" points="338.501,280.844 318.02,280.844 315.81,323.019 336.29,323.019 			"/>
			<g>
				<polygon style="fill:#407BFF;" points="367.726,266.905 347.246,266.905 344.305,323.019 364.785,323.019 				"/>
				<polygon style="opacity:0.6;" points="367.726,266.905 347.246,266.905 344.305,323.019 364.785,323.019 				"/>
			</g>
			<g>
				<polygon style="fill:#407BFF;" points="395.491,280.844 375.01,280.844 372.8,323.019 393.28,323.019 				"/>
				<polygon style="opacity:0.3;" points="395.491,280.844 375.01,280.844 372.8,323.019 393.28,323.019 				"/>
			</g>
			<polygon style="fill:#263238;" points="393.092,326.605 315.622,326.605 315.672,325.648 393.143,325.648 			"/>
		</g>
		<g>
			<g>
				<polygon style="opacity:0.8;fill:#FAFAFA;" points="403.563,148.151 314.257,148.151 316.901,97.704 406.206,97.704 				"/>
				<g>
					<path style="fill:#407BFF;" d="M315.87,117.361l-1.614,30.791h89.306l2.004-38.235c-14.812,0-23.608,16.876-41.934,16.876
						C345.305,126.792,340.262,117.361,315.87,117.361z"/>
					<path style="opacity:0.1;" d="M315.87,117.361l-1.614,30.791h89.306l2.004-38.235c-14.812,0-23.608,16.876-41.934,16.876
						C345.305,126.792,340.262,117.361,315.87,117.361z"/>
				</g>
				<g>
					<path style="fill:#407BFF;" d="M315.099,132.083c20.074,0,27.277-11.026,38.55-11.026s16.204,11.569,30.246,11.569
						c14.635,0,20.958-9.097,20.958-9.097l-1.29,24.622h-89.306L315.099,132.083z"/>
					<path style="opacity:0.5;" d="M315.099,132.083c20.074,0,27.277-11.026,38.55-11.026s16.204,11.569,30.246,11.569
						c14.635,0,20.958-9.097,20.958-9.097l-1.29,24.622h-89.306L315.099,132.083z"/>
				</g>
			</g>
		</g>
	</g>
</g>
<g id="Character">
	<g>
		<g>
			<path style="fill:#E58A7B;" d="M138.486,170.801c-1.318,1.768-2.788,3.74-4.111,5.668c-1.342,1.947-2.679,3.9-3.935,5.884
				c-2.507,3.959-4.862,8.019-6.6,12.103l-0.326,0.766l-0.161,0.376c0,0-0.013-0.017-0.019,0.001
				c-0.036,0.035-0.095,0.221-0.113,0.504c-0.045,0.576,0.045,1.473,0.266,2.413c0.451,1.902,1.238,4.038,2.173,6.129
				c1.867,4.204,4.209,8.513,6.579,12.643l-4.326,3.423c-3.644-3.69-6.861-7.574-9.721-12.036c-1.394-2.253-2.738-4.598-3.741-7.416
				c-0.493-1.418-0.942-2.952-1.074-4.845c-0.055-0.949-0.025-2.004,0.225-3.17c0.055-0.285,0.15-0.595,0.234-0.889l0.161-0.491
				l0.32-0.968c0.408-1.311,0.913-2.535,1.394-3.792c0.535-1.208,1.042-2.447,1.624-3.616c1.108-2.39,2.373-4.655,3.665-6.898
				c1.302-2.236,2.691-4.398,4.148-6.514c0.731-1.057,1.477-2.1,2.241-3.137c0.767-1.057,1.524-2.026,2.418-3.117L138.486,170.801z"
				/>
			<path style="fill:#E58A7B;" d="M130.686,215.715l5.373,0.925l-4.765,8.084c0,0-3.745-1.799-4.419-5.293L130.686,215.715z"/>
			<polygon style="fill:#E58A7B;" points="141.861,219.528 137.61,226.025 131.293,224.724 136.058,216.64 			"/>
			<path style="fill:#263238;" d="M166.179,131.6c0,0.592,0.314,1.073,0.701,1.073s0.701-0.48,0.701-1.073
				c0-0.593-0.314-1.073-0.701-1.073S166.179,131.008,166.179,131.6z"/>
			<path style="fill:#DF5753;" d="M166.438,132.673c0,0,1.347,3.419,2.831,5.068c-1.048,0.979-2.831,0.531-2.831,0.531V132.673z"/>
			<path style="fill:#263238;" d="M164.079,128.317c-0.108,0-0.215-0.05-0.283-0.145c-0.112-0.156-0.077-0.374,0.079-0.486
				c1.562-1.126,3.066-0.563,3.13-0.539c0.179,0.069,0.269,0.271,0.199,0.45c-0.069,0.179-0.266,0.27-0.449,0.2l0,0
				c-0.048-0.019-1.228-0.444-2.474,0.454C164.221,128.295,164.149,128.317,164.079,128.317z"/>
			<path style="fill:#E58A7B;" d="M147.055,138.432c1.054,5.374,2.105,15.222-1.655,18.808c0,0,1.469,5.452,11.455,5.452
				c10.981,0,5.248-5.451,5.248-5.451c-5.993-1.431-5.838-5.878-4.794-10.053L147.055,138.432z"/>
			<path style="fill:#407BFF;" d="M143.961,159.111c-0.787-1.726-1.654-3.701,0.139-4.319c1.972-0.681,12.768-1.375,16.49-0.097
				c3.722,1.278,2.667,4.778,2.667,4.778L143.961,159.111z"/>
			<path style="fill:#407BFF;" d="M120.827,410.021c-0.758,0-1.541-0.117-1.917-0.208c-0.066-0.016-0.118-0.069-0.13-0.137
				c-0.013-0.068,0.016-0.137,0.072-0.176c0.085-0.059,2.12-1.442,3.187-1.196c0.247,0.059,0.431,0.195,0.546,0.405
				c0.22,0.401,0.125,0.671,0.006,0.826C122.308,409.905,121.579,410.021,120.827,410.021z M119.402,409.558
				c1.098,0.186,2.597,0.179,2.912-0.233c0.03-0.04,0.123-0.161-0.034-0.447c-0.067-0.122-0.172-0.199-0.321-0.234
				C121.315,408.491,120.106,409.123,119.402,409.558z"/>
			<path style="fill:#407BFF;" d="M118.95,409.817c-0.033,0-0.066-0.009-0.095-0.028c-0.054-0.034-0.083-0.096-0.079-0.159
				c0.007-0.09,0.183-2.21,1.036-2.907c0.222-0.181,0.472-0.254,0.741-0.224c0.416,0.052,0.526,0.309,0.554,0.457
				c0.155,0.819-1.315,2.429-2.075,2.841C119.007,409.81,118.978,409.817,118.95,409.817z M120.433,406.84
				c-0.143,0-0.274,0.05-0.399,0.152c-0.511,0.418-0.771,1.593-0.869,2.303c0.756-0.572,1.693-1.789,1.602-2.274
				c-0.008-0.044-0.028-0.148-0.254-0.176C120.485,406.841,120.458,406.84,120.433,406.84z"/>
			<path style="fill:#407BFF;" d="M164.941,410.022c-0.879,0-1.786-0.113-2.255-0.207c-0.071-0.015-0.126-0.071-0.138-0.143
				c-0.012-0.072,0.022-0.144,0.085-0.18c0.108-0.063,2.673-1.519,3.899-1.192c0.251,0.068,0.437,0.205,0.551,0.407
				c0.206,0.359,0.122,0.612,0.014,0.761C166.792,409.891,165.882,410.022,164.941,410.022z M163.251,409.557
				c1.376,0.19,3.233,0.166,3.564-0.293c0.044-0.062,0.089-0.168-0.034-0.385c-0.069-0.12-0.18-0.199-0.341-0.243
				C165.637,408.418,164.03,409.157,163.251,409.557z"/>
			<path style="fill:#407BFF;" d="M162.72,409.817c-0.036,0-0.071-0.011-0.102-0.032c-0.05-0.036-0.078-0.097-0.072-0.158
				c0.008-0.084,0.206-2.063,1.141-2.829c0.285-0.235,0.61-0.337,0.965-0.299c0.479,0.049,0.616,0.291,0.648,0.486
				c0.134,0.832-1.623,2.42-2.509,2.817C162.768,409.813,162.744,409.817,162.72,409.817z M164.513,406.84
				c-0.221,0-0.42,0.074-0.605,0.227c-0.614,0.504-0.876,1.688-0.97,2.266c0.905-0.543,2.099-1.792,2.018-2.291
				c-0.006-0.041-0.026-0.164-0.339-0.196C164.581,406.842,164.547,406.84,164.513,406.84z"/>
			<polygon style="fill:#E58A7B;" points="154.642,409.644 161.988,409.644 162.72,392.632 155.374,392.632 			"/>
			<polygon style="fill:#E58A7B;" points="110.533,409.644 117.88,409.644 121.572,392.632 114.226,392.632 			"/>
			<path style="fill:#263238;" d="M118.402,408.793h-8.253c-0.3,0-0.56,0.209-0.625,0.502l-1.451,6.53
				c-0.15,0.677,0.382,1.318,1.076,1.306c2.881-0.049,4.281-0.219,7.911-0.219c2.233,0,6.833,0.232,9.917,0.232
				c3.016,0,3.486-3.049,2.224-3.325c-5.66-1.238-7.793-2.946-9.605-4.575C119.268,408.951,118.841,408.793,118.402,408.793z"/>
			<path style="fill:#263238;" d="M161.94,408.793h-8.023c-0.3,0-0.56,0.209-0.626,0.502l-1.451,6.53
				c-0.15,0.677,0.364,1.318,1.057,1.307c2.894-0.049,7.076-0.219,10.713-0.219c4.253,0,7.926,0.232,12.914,0.232
				c3.016,0,3.853-3.049,2.59-3.325c-5.747-1.257-10.439-1.392-15.406-4.454C163.17,409.033,162.574,408.793,161.94,408.793z"/>
			<path style="fill:#E58A7B;" d="M171.654,161.435c4.3,2.119,8.768,4.282,13.176,6.315c4.417,2.058,8.868,3.998,13.295,5.686
				l1.656,0.598l0.414,0.15l0.104,0.038c0.031,0.011,0.003,0.002,0.008,0.005c-0.007,0.001-0.013,0.003-0.02,0.008
				c-0.011,0.007-0.004,0.032,0.052,0.044c0.202,0.076,0.943,0.041,1.771-0.205c1.693-0.494,3.721-1.526,5.664-2.698
				c3.916-2.379,7.88-5.364,11.638-8.345l4.051,3.743c-3.126,4.24-6.529,8.058-10.688,11.555c-2.114,1.718-4.341,3.388-7.32,4.678
				c-1.503,0.621-3.23,1.221-5.533,1.2c-0.568-0.005-1.181-0.069-1.803-0.188l-0.474-0.108l-0.338-0.088l-0.478-0.132l-1.914-0.528
				c-5.038-1.487-9.852-3.297-14.561-5.281c-4.724-1.999-9.267-4.143-13.851-6.577L171.654,161.435z"/>
			<path style="fill:#263238;" d="M132.246,158.901c-6.885,1.579-14.782,20.351-14.782,20.351l13.829,9.478
				c0,0,5.239-7.329,9.134-15.529C144.508,164.609,139.286,157.287,132.246,158.901z"/>
			<g>
				<path style="fill:#407BFF;" d="M137.18,170.871l-6.54,17.409l0.65,0.45c0,0,2.83-3.97,5.89-9.33V170.871z"/>
				<path style="opacity:0.8;" d="M137.18,170.871l-6.54,17.409l0.65,0.45c0,0,2.83-3.97,5.89-9.33V170.871z"/>
			</g>
			<path style="fill:#263238;" d="M173.403,159.279c0,0,7.819,8.832,0.435,63.497c-11.839,0-33.532,0-39.293,0
				c-0.271-6.032,3.519-35.456-2.298-63.876c0,0,6.735-1.352,13.154-1.661c5.021-0.242,12.289-0.402,16.703,0.001
				C167.922,157.771,173.403,159.279,173.403,159.279z"/>
			<g>
				<path style="fill:#407BFF;" d="M176.84,176.1l-9.45-2.05c0.14,0.17,5.98,7.52,9.59,12.09
					C177.05,182.29,176.99,178.96,176.84,176.1z"/>
				<path style="opacity:0.8;" d="M176.84,176.1l-9.45-2.05c0.14,0.17,5.98,7.52,9.59,12.09
					C177.05,182.29,176.99,178.96,176.84,176.1z"/>
			</g>
			<path style="fill:#263238;" d="M161.076,169.061c2.168,6.681,24.048,13.976,24.048,13.976l6.5-15.404
				c0,0-8.702-5.405-17.367-8.139C165.359,156.687,158.697,161.729,161.076,169.061z"/>
			<path style="fill:#E58A7B;" d="M218.789,163.958l2.156-7.446l8.55,3.868c0,0-1.894,5.781-7.062,7.163L218.789,163.958z"/>
			<polygon style="fill:#E58A7B;" points="226.058,150.338 231.872,156.068 229.494,160.38 220.945,156.513 			"/>
			<g>
				<polygon style="fill:#CF6F64;" points="162.718,392.636 162.342,401.405 154.993,401.405 155.369,392.636 				"/>
				<polygon style="fill:#CF6F64;" points="114.223,392.636 121.573,392.636 119.666,401.405 112.316,401.405 				"/>
			</g>
			<path style="fill:#E58A7B;" d="M146.415,130.344c0.447,7.277,0.339,11.559,4.014,15.294c5.529,5.618,14.511,2.286,16.248-4.978
				c1.563-6.538,0.57-17.341-6.554-20.237C153.105,117.57,145.968,123.067,146.415,130.344z"/>
			<path style="fill:#263238;" d="M160.555,125.5c5.49,1.624,10.097-6.167,9.242-0.661c-0.843,5.425,5.142,4.91,5.142,4.91
				s-4.704-1.78,0.889-6.418c6.834-5.667-2.872-9.148-7.114-6.07c-5.729,4.156-6.841-3.184-14.215-5.146
				c-4.968-1.322-11.154,1.82-11.264,5.427c-0.134,4.41-3.928,0.863-4.208,7.417c-0.183,4.279,4.91,18.395,10.417,18.875
				C157.722,144.556,160.5,134.06,160.555,125.5z"/>
			<path style="fill:#E58A7B;" d="M156.236,132.46c0.403,1.867,1.552,3.504,2.783,4.501c1.852,1.499,3.336,0.159,3.289-2.008
				c-0.043-1.951-1.058-5.082-3.141-5.744C157.113,128.555,155.774,130.326,156.236,132.46z"/>
			<path style="fill:#263238;" d="M144.839,121.643c-0.826-1.447-2.709-4.733-0.81-9.298
				C144.029,112.344,136.208,118.231,144.839,121.643z"/>
			<path style="fill:#263238;" d="M138.584,120.916c0.812-0.277,2.658-0.912,4.784,0.491
				C143.368,121.407,141.147,116.879,138.584,120.916z"/>
			<path style="fill:#407BFF;" d="M159.899,222.777c0,0-8.337,56.142-12.914,77.175c-5.012,23.033-23.895,99.755-23.895,99.755
				h-13.455c0,0,12.451-74.863,15.311-97.667c3.104-24.75,9.598-79.263,9.598-79.263H159.899z"/>
			<g>
				<path style="fill:#407BFF;" d="M125.239,394.75c0.057,0-1.389,5.167-1.389,5.167h-15.139l0.278-4.611L125.239,394.75z"/>
				<path style="opacity:0.2;" d="M125.239,394.75c0.057,0-1.389,5.167-1.389,5.167h-15.139l0.278-4.611L125.239,394.75z"/>
			</g>
			<g>
				<path style="fill:#407BFF;" d="M154.63,242.78c-9.64,1.89-8.62,37.84-7.46,56.33c2.78-13.07,6.85-38.22,9.63-56.07
					C156.16,242.72,155.44,242.62,154.63,242.78z"/>
				<path style="opacity:0.2;" d="M154.63,242.78c-9.64,1.89-8.62,37.84-7.46,56.33c2.78-13.07,6.85-38.22,9.63-56.07
					C156.16,242.72,155.44,242.62,154.63,242.78z"/>
			</g>
			<path style="fill:#407BFF;" d="M173.838,222.777c0,0,1.012,54.927,0.213,77.33c-0.831,23.302-8.97,99.601-8.97,99.601h-12.445
				c0,0-0.457-74.937-1.01-97.822c-0.604-24.949-3.616-79.108-3.616-79.108H173.838z"/>
			<g>
				<path style="fill:#407BFF;" d="M162.488,390.768c-0.004,0-0.008,0-0.013-0.001c-0.069-0.007-0.119-0.068-0.112-0.137
					c2.193-21.115,7.365-72.205,8.018-90.528c0.67-18.773,0.062-60.695-0.141-73.097c-0.001-0.069,0.054-0.126,0.123-0.127
					c0.061,0.003,0.126,0.054,0.127,0.123c0.202,12.403,0.811,54.331,0.141,73.111c-0.654,18.33-5.826,69.427-8.02,90.544
					C162.605,390.72,162.551,390.768,162.488,390.768z"/>
				<path style="opacity:0.2;" d="M162.488,390.768c-0.004,0-0.008,0-0.013-0.001c-0.069-0.007-0.119-0.068-0.112-0.137
					c2.193-21.115,7.365-72.205,8.018-90.528c0.67-18.773,0.062-60.695-0.141-73.097c-0.001-0.069,0.054-0.126,0.123-0.127
					c0.061,0.003,0.126,0.054,0.127,0.123c0.202,12.403,0.811,54.331,0.141,73.111c-0.654,18.33-5.826,69.427-8.02,90.544
					C162.605,390.72,162.551,390.768,162.488,390.768z"/>
			</g>
			<g>
				<path style="fill:#407BFF;" d="M167.475,394.75c0.057,0-0.702,5.167-0.702,5.167h-15.139l-0.409-4.611L167.475,394.75z"/>
				<path style="opacity:0.2;" d="M167.475,394.75c0.057,0-0.702,5.167-0.702,5.167h-15.139l-0.409-4.611L167.475,394.75z"/>
			</g>
		</g>
	</g>
</g>
</svg>
