<?xml version="1.0" encoding="utf-8"?>
<!-- Generator: Adobe Illustrator 27.5.0, SVG Export Plug-In . SVG Version: 6.00 Build 0)  -->
<svg version="1.1" xmlns="http://www.w3.org/2000/svg" xmlns:xlink="http://www.w3.org/1999/xlink" x="0px" y="0px"
	 viewBox="0 0 500 500" style="enable-background:new 0 0 500 500;" xml:space="preserve">
<g id="Background_Complete">
	<g>
		<rect y="382.398" style="fill:#EBEBEB;" width="500" height="0.25"/>
		<rect x="416.779" y="398.494" style="fill:#EBEBEB;" width="33.122" height="0.25"/>
		<rect x="322.527" y="401.208" style="fill:#EBEBEB;" width="8.693" height="0.25"/>
		<rect x="396.586" y="389.208" style="fill:#EBEBEB;" width="19.192" height="0.25"/>
		<rect x="52.459" y="390.888" style="fill:#EBEBEB;" width="43.193" height="0.25"/>
		<rect x="104.556" y="390.888" style="fill:#EBEBEB;" width="6.333" height="0.25"/>
		<rect x="131.471" y="395.111" style="fill:#EBEBEB;" width="93.676" height="0.25"/>
		<path style="fill:#EBEBEB;" d="M237.014,337.8H43.915c-3.147,0-5.708-2.561-5.708-5.708V60.66c0-3.147,2.561-5.708,5.708-5.708
			h193.099c3.146,0,5.707,2.561,5.707,5.708v271.432C242.721,335.239,240.16,337.8,237.014,337.8z M43.915,55.203
			c-3.01,0-5.458,2.448-5.458,5.458v271.432c0,3.01,2.448,5.458,5.458,5.458h193.099c3.009,0,5.457-2.448,5.457-5.458V60.66
			c0-3.009-2.448-5.458-5.457-5.458H43.915z"/>
		<path style="fill:#EBEBEB;" d="M453.31,337.8H260.212c-3.147,0-5.707-2.561-5.707-5.708V60.66c0-3.147,2.561-5.708,5.707-5.708
			H453.31c3.148,0,5.708,2.561,5.708,5.708v271.432C459.019,335.239,456.458,337.8,453.31,337.8z M260.212,55.203
			c-3.009,0-5.457,2.448-5.457,5.458v271.432c0,3.01,2.448,5.458,5.457,5.458H453.31c3.01,0,5.458-2.448,5.458-5.458V60.66
			c0-3.009-2.448-5.458-5.458-5.458H260.212z"/>
	</g>
	<g>
		
			<ellipse transform="matrix(0.9871 -0.1602 0.1602 0.9871 -33.7115 44.1126)" style="fill:#F0F0F0;" cx="256.756" cy="231.155" rx="44.07" ry="44.069"/>
		<path style="fill:#EBEBEB;" d="M267.958,257c8.333-6.667,33-7,44.667,3c11.666,10,27.666,26.333,33.333,28.333
			c5.667,2,24.556-5.333,39.778-7c15.222-1.667,21.222,14,26.889,22.667c5.666,8.667,11.666,9,14.333,20.333
			c2.667,11.333,7.667,19.667,15.333,29c7.667,9.333,30,21.964,32.334,29.065c-11.5,0-246,0-246,0L225.958,286
			C232.624,279.333,259.624,263.667,267.958,257z"/>
		<path style="fill:#F5F5F5;" d="M71.275,295.333c5.168-5.22,21.876-8.667,31.45-29.333c9.574-20.667,41.02-63.667,52.976-69.624
			c11.956-5.957,25.271-32.043,30.065-35.71C190.559,157,196.727,167,198.428,173c4.327,15.264,24.965,58.667,37.3,67
			s13.159,26.333,16.588,36.667C255.745,287,276.78,293,281.559,306.333c4.78,13.333,57.976,76.065,57.976,76.065H22
			C37.821,370.908,51.365,315.444,71.275,295.333z"/>
		<path style="fill:#F0F0F0;" d="M186.291,175c0,5.13-1.555,28.889-6.889,34.667c-5.333,5.778-0.636-7.111-9.651,0
			c-9.015,7.111-13.015,21.778-28.126,26.889c-15.111,5.111-13.778-7.778-6.445-15.111c7.333-7.333,16.028-20.222,22.903-24
			C164.957,193.667,186.291,159.222,186.291,175z"/>
		<path style="fill:#F0F0F0;" d="M148.957,281.222c7.19-9.946-25.111,1.556-34.889-2c-9.778-3.556-2.222-8.444-16.444,4
			c-14.222,12.444-38.889,24.444-25.556,28.667C85.402,316.111,135.624,299.667,148.957,281.222z"/>
		<path style="fill:#F0F0F0;" d="M333.124,286.167c-5.524-6.595-11.833-19-20-21.167c-8.167-2.167-13.667-3.5-12,1.5
			C302.791,271.5,341.722,296.432,333.124,286.167z"/>
		<path style="fill:#F0F0F0;" d="M422.568,321.667c-1.415-4.627-5.778-4.5-9.611-11.833c-3.833-7.333-9.5-19.833-18.833-20.333
			c-9.333-0.5-24.167,3.167-11.667,12.5S427.513,337.833,422.568,321.667z"/>
		<path style="fill:#FAFAFA;" d="M404.498,109.451c0,0-166,0-190,0s43.333-5,80.333-13.333s40-11,52.333-2s49-11,66.667,1
			C431.498,107.118,436.164,109.451,404.498,109.451z"/>
		<path style="fill:#FAFAFA;" d="M141.146,141.611c23.702,0,68.93-1.935,50.791-9.916s-31.563,7.981-39.484,1.209
			c-7.921-6.772-20.74-7.74-31.381-1.209c-10.642,6.53-7.483-3.631-20.316,0c-17.964,5.083-75.63,9.916-26.574,9.916
			C96.402,141.611,123.759,141.611,141.146,141.611z"/>
		<path style="fill:#FAFAFA;" d="M341.232,227.611c18.097,0,52.63-1.477,38.78-7.571c-13.85-6.094-24.099,6.094-30.147,0.923
			c-6.048-5.171-15.835-5.909-23.961-0.923c-8.125,4.986-5.713-2.773-15.512,0c-13.716,3.881-57.746,7.571-20.29,7.571
			C307.069,227.611,327.957,227.611,341.232,227.611z"/>
	</g>
</g>
<g id="Background_Simple" style="display:none;">
	<g style="display:inline;">
		<path style="fill:#407BFF;" d="M80.419,203.081c10.024-34.333,59.743-53.637,103.938-44.656
			c38.551,7.834,53.63,35.389,96.591,35.471c40.027,0.077,75.717-10.481,112.125,18.407c28.642,22.725,27.733,53.192,22.894,83.113
			c-13.234,81.822-68.618,106.305-160.687,78.756c-44.007-13.168-96.899-34.002-132.577-61.462
			C79.89,279.757,67.989,245.659,80.419,203.081z"/>
		<path style="opacity:0.9;fill:#FFFFFF;" d="M80.419,203.081c10.024-34.333,59.743-53.637,103.938-44.656
			c38.551,7.834,53.63,35.389,96.591,35.471c40.027,0.077,75.717-10.481,112.125,18.407c28.642,22.725,27.733,53.192,22.894,83.113
			c-13.234,81.822-68.618,106.305-160.687,78.756c-44.007-13.168-96.899-34.002-132.577-61.462
			C79.89,279.757,67.989,245.659,80.419,203.081z"/>
	</g>
</g>
<g id="Shadow_1_">
	<ellipse id="_x3C_Path_x3E__32_" style="fill:#F5F5F5;" cx="250" cy="416.238" rx="193.889" ry="11.323"/>
</g>
<g id="Car">
	<g>
		<g>
			<g>
				<path style="fill:#263238;" d="M236.062,414.1c12.529,0,22.686-20.121,22.686-44.941c0-24.82-10.157-44.941-22.686-44.941
					h-29.107V414.1H236.062z"/>
				<ellipse style="fill:#263238;" cx="206.847" cy="369.16" rx="22.686" ry="44.941"/>
			</g>
			<g>
				<path style="fill:#263238;" d="M402.428,414.1c12.529,0,22.686-20.121,22.686-44.941c0-24.82-10.157-44.941-22.686-44.941
					h-29.107V414.1H402.428z"/>
				<ellipse style="fill:#263238;" cx="373.213" cy="369.16" rx="22.686" ry="44.941"/>
			</g>
			<path style="fill:#407BFF;" d="M87.341,391.467l-15.539-3.823c-5.321-1.309-9.793-4.9-12.22-9.812l-0.011-0.022
				c-1.059-2.144-2.523-4.063-4.31-5.653l-3.818-3.395c-4.429-3.939-6.713-9.755-6.148-15.655l2.104-21.978
				c0.722-7.546,5.956-13.896,13.224-16.047l11.105-3.287l40.079-2.852L87.341,391.467z"/>
			<g>
				<path style="fill:#263238;" d="M121.232,414.1c12.529,0,22.686-20.121,22.686-44.941c0-24.82-10.157-44.941-22.686-44.941
					H92.125V414.1H121.232z"/>
				<ellipse style="fill:#263238;" cx="92.017" cy="369.16" rx="22.686" ry="44.941"/>
				<ellipse style="fill:#407BFF;" cx="92.017" cy="369.16" rx="15.916" ry="35.524"/>
			</g>
			<path style="fill:#407BFF;" d="M322.251,391.467l39.179-87.558c0,0-58.624-43.644-132.949-43.644
				c-120.547,0-116.41,16.251-156.752,51.53l17.609,12.423c31.329,0,33.942,49.665,38.949,63.633
				c0.777,2.166,2.823,3.616,5.124,3.616H322.251"/>
			<g>
				<path style="fill:#263238;" d="M287.598,414.1c12.529,0,22.686-20.121,22.686-44.941c0-24.82-10.157-44.941-22.686-44.941
					h-29.107V414.1H287.598z"/>
				<ellipse style="fill:#263238;" cx="258.383" cy="369.16" rx="22.686" ry="44.941"/>
				<ellipse style="fill:#407BFF;" cx="258.383" cy="369.16" rx="15.916" ry="35.524"/>
			</g>
			<path style="fill:#407BFF;" d="M298.873,384.24c-3.611-16.403-20.871-59.968-41.567-59.968l-22.415-20.362
				c0,0,109.83,0,126.539,0c8.765,0,47.668,5.376,69.715,20.31c17.812,12.065,19.977,30.367,22.566,57.12
				c0.529,5.462-4.251,10.155-10.287,10.158c-50.705,0.023-112.067,0.197-134.406,0.265
				C304.089,391.777,299.84,388.631,298.873,384.24z"/>
			<path style="opacity:0.8;fill:#FFFFFF;" d="M352.283,303.909H269.79c-3.87,0-7.524-1.878-9.69-5.086
				c-9.182-13.603-25.432-27.384-37.337-33.913C306.163,264.911,352.283,303.909,352.283,303.909z"/>
			<path style="opacity:0.8;fill:#FFFFFF;" d="M220.723,269.01c10.008,7.237,21.381,18.462,27.765,29.614
				c1.348,2.354-0.329,5.286-3.042,5.286H110.296c-14.332,0-9.579-35.722,65.333-38.396c7.058-0.609,23.523-0.63,32.624-0.59
				C212.739,264.944,217.088,266.38,220.723,269.01z"/>
			<path style="fill:#263238;" d="M313.173,371.97l43.325,3.269c1.401,0.106,2.484,1.273,2.484,2.678v2.959
				c0,1.483-1.203,2.686-2.686,2.686h-43.325c-1.483,0-2.686-1.203-2.686-2.686v-6.229
				C310.285,373.086,311.614,371.853,313.173,371.97z"/>
			<path style="fill:#263238;" d="M450.901,372.602l-11.933,2.394c-1.255,0.252-2.158,1.354-2.158,2.633v3.25
				c0,1.483,1.202,2.686,2.686,2.686h12.607c1.609,0,2.858-1.406,2.667-3.004l-0.674-5.643
				C453.91,373.361,452.437,372.293,450.901,372.602z"/>
			<path style="opacity:0.8;fill:#FFFFFF;" d="M348.826,321.582l-60.497-2.94c0,0-0.616,10.718,21.797,13.028
				C332.54,333.98,348.826,321.582,348.826,321.582z"/>
			<path style="opacity:0.3;" d="M47.405,331.124c0.169-1.802,0.597-3.526,1.245-5.147l4.096-0.116c0,0,0.194,15.725-5.743,14.739
				c-0.168-0.026-0.324-0.065-0.493-0.117L47.405,331.124z"/>
			<path style="opacity:0.8;fill:#FFFFFF;" d="M425.191,320.624c2.087,1.128,4.083,2.321,5.95,3.591
				c3.098,2.1,5.717,4.382,7.947,6.87c-0.791,0.234-1.646,0.428-2.567,0.584c-13.43,2.307-23.192-10.086-23.192-10.086
				L425.191,320.624z"/>
			<path style="fill:#263238;" d="M367.568,338.479h42.815c1.474,0,2.942,0.472,4.189,1.346l7.483,5.246
				c1.722,1.207,2.874,3.077,3.147,5.108l1.907,14.172c0.536,3.984-2.393,7.36-6.386,7.36h-45.786c-2.73,0-5.314-1.608-6.594-4.102
				l-8.557-16.672c-1.243-2.423-1.033-5.248,0.542-7.271l2.138-2.746C363.672,339.372,365.538,338.479,367.568,338.479z"/>
			<path style="opacity:0.1;" d="M141.897,373.049h83.72c1.17,0,2.088,1.003,1.984,2.169l-0.433,4.874
				c-0.091,1.028-0.952,1.816-1.985,1.816h-83.72c-1.17,0-2.088-1.003-1.984-2.169l0.433-4.874
				C140.004,373.837,140.865,373.049,141.897,373.049z"/>
			<polygon style="fill:#407BFF;" points="168.586,264.911 173.603,263.938 163.346,308.943 158.551,308.943 			"/>
			<path style="fill:#263238;" d="M186.875,313.988h-17.141l-0.444,1.801c-0.461,1.87,0.682,3.385,2.551,3.385h10.371
				c1.869,0,3.758-1.516,4.219-3.385L186.875,313.988z"/>
			<path style="fill:#263238;" d="M127.891,313.988H110.75l-0.444,1.801c-0.461,1.87,0.682,3.385,2.551,3.385h10.371
				c1.869,0,3.758-1.516,4.219-3.385L127.891,313.988z"/>
		</g>
		<path style="opacity:0.1;" d="M161.465,367.23c-0.311,0-0.565-0.248-0.572-0.56l-1.259-58.922
			c-0.007-0.316,0.244-0.578,0.56-0.584c0.005,0,0.009,0,0.013,0c0.311,0,0.565,0.248,0.572,0.56l1.259,58.922
			c0.007,0.316-0.244,0.578-0.56,0.585C161.473,367.23,161.469,367.23,161.465,367.23z"/>
	</g>
</g>
<g id="Character_1_">
	<g>
		<polygon style="fill:#FF8B7B;" points="195.402,410.182 189.495,410.09 187.791,396.389 193.699,396.481 		"/>
		<polygon style="fill:#FF8B7B;" points="159.428,410.044 154.03,407.032 158.064,394.317 163.462,397.329 		"/>
		<path style="fill:#263238;" d="M153.516,406.322l6.264,3.553c0.21,0.119,0.309,0.368,0.238,0.599l-1.575,5.142
			c-0.163,0.533-0.79,0.771-1.27,0.487c-1.995-1.177-3.399-2.13-5.937-3.569c-1.561-0.886-6.363-3.394-8.519-4.617
			c-2.109-1.196-1.229-3.515-0.236-3.208c4.449,1.379,8.11,1.877,10.023,1.457C152.848,406.09,153.208,406.148,153.516,406.322z"/>
		<path style="fill:#263238;" d="M189.374,409.406l6.449,0.101c0.241,0.004,0.448,0.175,0.497,0.411l1.084,5.268
			c0.112,0.546-0.309,1.055-0.866,1.037c-2.326-0.076-5.686-0.265-8.61-0.311c-3.419-0.054-6.375,0.087-10.384,0.024
			c-2.424-0.038-3.059-2.5-2.041-2.706c4.636-0.938,8.41-0.987,12.441-3.386C188.383,409.583,188.865,409.398,189.374,409.406z"/>
		<path style="fill:#FF8B7B;" d="M186.575,236.933c-3.423,2.803-6.873,5.336-10.551,7.76c-1.849,1.189-3.714,2.37-5.708,3.444
			c-2.005,1.074-4.022,2.128-6.524,2.931c-0.633,0.199-1.31,0.381-2.066,0.522c-0.38,0.07-0.82,0.118-1.236,0.16
			c-0.46,0.028-0.938,0.027-1.434-0.017c-0.991-0.089-2.058-0.377-2.999-0.877c-0.948-0.496-1.74-1.176-2.338-1.875
			c-1.203-1.419-1.775-2.844-2.179-4.149c-0.381-1.317-0.575-2.561-0.692-3.767c-0.38-4.817,0.24-9.132,1.287-13.521l4.393,0.607
			c0.067,4.018,0.303,8.259,1.143,11.845c0.211,0.887,0.479,1.722,0.794,2.408c0.299,0.687,0.676,1.209,0.909,1.361
			c0.115,0.084,0.169,0.073,0.176,0.04c0.008-0.03-0.013-0.048,0.053-0.064c0.061-0.016,0.75-0.162,1.479-0.469
			c1.499-0.616,3.239-1.576,4.905-2.612c1.679-1.047,3.375-2.171,5.044-3.349c3.337-2.341,6.705-4.861,9.916-7.341L186.575,236.933z
			"/>
		<g>
			<path style="fill:#407BFF;" d="M188.385,234.213c-2.694,6.064-13.063,12.348-18.811,14.978c-1.699,0.777-1.486,3.059-2.491,2.068
				c0,0-4.43-8.128-4.43-9.793c0-1.666,1.464-0.669,2.671-1.781c4.317-3.977,13.356-12.79,18.982-13.762
				C191.697,224.645,190.901,228.549,188.385,234.213z"/>
		</g>
		<path style="fill:#263238;" d="M163.271,240.411c-0.571-0.842-2.935,1.363-3.685,2.274c-0.75,0.911,1.312,4.262,1.937,6.021
			c0.625,1.759-0.602,3.59,1.299,3.863c1.011,0.145,3.85-0.225,4.401-0.958C168.512,249.9,164.637,242.425,163.271,240.411z"/>
		<path style="opacity:0.2;" d="M176.839,245.214c4.839-3.05,9.801-7.072,11.549-11.001c0.114-0.269,0.238-0.527,0.341-0.786
			l0.104-0.992C182.257,233.551,177.801,240.189,176.839,245.214z"/>
		<path style="fill:#FF8B7B;" d="M155.657,229.946l3.815-5.65l-6.226-2.537c0,0-3.52,3.982-1.03,7.49L155.657,229.946z"/>
		<polygon style="fill:#FF8B7B;" points="161.072,218.21 155.349,218.019 153.246,221.759 159.472,224.296 		"/>
		<polygon style="opacity:0.2;" points="187.792,396.392 188.669,403.454 194.58,403.547 193.703,396.485 		"/>
		<polygon style="opacity:0.2;" points="163.462,397.333 158.062,394.32 155.985,400.875 161.385,403.888 		"/>
		<g>
			<path style="fill:#407BFF;" d="M217.326,228.084c-6.362,22.436-5.079,46.249-5.653,51.068c-4.62-0.336-22.02-1.633-31.506-2.341
				c-3.021-33.754,4.139-50.889,4.139-50.889s2.026-0.393,4.781-0.676c0.864-0.088,1.796-0.166,2.766-0.217
				c0.536-0.032,1.08-0.049,1.633-0.061c3.564-0.058,9.385,0.508,13.394,0.998c0.839,0.105,1.695,0.231,2.521,0.365
				c0.767,0.131,1.52,0.27,2.229,0.412C214.844,227.385,217.326,228.084,217.326,228.084z"/>
		</g>
		<path style="fill:#263238;" d="M193.485,224.968c-2.659,1.419-3.424,6.617,1.706,6.818c5.13,0.201,10.224-3.405,11.685-5.822
			L193.485,224.968z"/>
		<path style="opacity:0.2;" d="M210.604,237.709c-0.567,2.171,0.081,12.075,2.347,14.518c0.309-3.171,0.721-6.483,1.266-9.868
			L210.604,237.709z"/>
		<path style="fill:#FF8B7B;" d="M206.672,210.786c-1.165,4.246-2.596,12.078,0.205,15.178c-2.515,2.154-5.407,3.668-10.537,3.467
			c-5.13-0.201-4.345-2.706-2.855-4.463c4.89-0.79,5.032-4.364,4.444-7.775L206.672,210.786z"/>
		<path style="opacity:0.2;" d="M203.107,213.401l-5.175,3.789c0.142,0.807,0.238,1.622,0.236,2.408
			c1.855-0.129,4.527-1.956,4.865-3.864C203.202,214.783,203.23,213.859,203.107,213.401z"/>
		<path style="fill:#263238;" d="M193.332,209.161c0,0-3.617-5.088-2.562-9.072C192.131,194.99,200.333,201.244,193.332,209.161z"/>
		<path style="fill:#FF8B7B;" d="M207.667,204.34c-0.793,5.808-0.961,9.248-4.131,12.023c-4.768,4.175-11.771,0.967-12.73-4.961
			c-0.863-5.335,0.578-13.937,6.462-15.834C203.066,193.699,208.46,198.532,207.667,204.34z"/>
		<path style="fill:#263238;" d="M193.917,210.479c0,0.89-0.812,1.098-1.473,1.5c-0.661,0.402-1.138,1.212-1.138,1.212
			s-0.844-0.282-0.5-1.79C191.151,209.894,193.917,209.646,193.917,210.479z"/>
		<path style="fill:#263238;" d="M194.33,210.514c0,1.527,1.69,1.312,2.979,1.739c1.853,0.614,2.679,1.852,2.679,1.852
			s0.597-1.054-0.367-2.334C198,209.617,194.33,209.681,194.33,210.514z"/>
		<path style="fill:#263238;" d="M203.183,199.09c-3.641,1.077-13.852,2.207-12.607-3.016c1.74-7.296,6.344-3.489,7.052-2.456
			c2.93-2.119,15.866-0.265,13.287,3.92c2.8,0.431,4.437,3.489,2.412,4.997c-2.025,1.508-4.465,7.675-5.816,7.496
			c-2.612-0.346-4.739-1.336-4.739-1.336l2.728-3.676C205.501,205.02,202.129,201.804,203.183,199.09z"/>
		<path style="fill:#263238;" d="M209.552,198.2c1.955-0.485,3.867-0.71,5.492,0.789C214.924,196.467,211.473,196.117,209.552,198.2
			z"/>
		<path style="fill:#FF8B7B;" d="M209.824,210.967c-0.928,1.28-2.359,2.012-3.645,2.196c-1.934,0.277-2.648-1.514-1.899-3.207
			c0.674-1.524,2.493-3.504,4.333-3.004C210.425,207.444,210.885,209.504,209.824,210.967z"/>
		<g>
			<path style="fill:#407BFF;" d="M186.473,402.056l10,0.152c0,0-5.777-39.504-4.877-57.886c0.275-5.592-0.621-13.414,0.855-21.796
				c1.866-10.562,2.763-14.775,5.176-28.124c1.721-9.518,3.25-16.049,3.25-16.049l-20.711-1.539c0,0-6.764,47.609-6.563,65.635
				C173.811,361.191,186.473,402.056,186.473,402.056z"/>
			<path style="opacity:0.6;" d="M186.473,402.056l10,0.152c0,0-5.777-39.504-4.877-57.886c0.275-5.592-0.621-13.414,0.855-21.796
				c1.866-10.562,2.763-14.775,5.176-28.124c1.721-9.518,3.25-16.049,3.25-16.049l-20.711-1.539c0,0-6.764,47.609-6.563,65.635
				C173.811,361.191,186.473,402.056,186.473,402.056z"/>
		</g>
		<path style="opacity:0.2;" d="M192.45,322.528c-0.831,4.695-0.912,9.213-0.868,13.26c-1.722,4.864-3.223,9.47-4.268,13.569
			c-1.832,7.174-4.732,18.05-7.557,28.506c-3.068-12.244-6.056-26.394-6.152-35.415L192.45,322.528z"/>
		<g>
			<path style="fill:#407BFF;" d="M191.341,277.645c0,0-14.881,37.597-20.521,53.957c-6.177,17.916-16.15,66.285-16.15,66.285
				l9.41,5.337c0,0,14.661-39.874,20.733-57.326c6.916-19.88,25.967-51.293,26.858-66.741
				C191.341,277.645,191.341,277.645,191.341,277.645z"/>
			<path style="opacity:0.6;" d="M191.341,277.645c0,0-14.881,37.597-20.521,53.957c-6.177,17.916-16.15,66.285-16.15,66.285
				l9.41,5.337c0,0,14.661-39.874,20.733-57.326c6.916-19.88,25.967-51.293,26.858-66.741
				C191.341,277.645,191.341,277.645,191.341,277.645z"/>
		</g>
		<polygon style="fill:#407BFF;" points="153.428,397.452 164.508,403.737 166.386,400.427 154.122,393.186 		"/>
		<polygon style="fill:#407BFF;" points="185.214,402.269 197.13,402.456 197.191,398.606 183.873,398.194 		"/>
		<path style="fill:#263238;" d="M199.89,205.312c-0.035,0.475-0.316,0.842-0.626,0.818c-0.311-0.023-0.534-0.427-0.498-0.902
			s0.316-0.842,0.626-0.818C199.702,204.433,199.925,204.837,199.89,205.312z"/>
		<path style="fill:#263238;" d="M193.572,204.913c-0.035,0.475-0.316,0.841-0.626,0.818c-0.311-0.023-0.534-0.427-0.498-0.902
			c0.035-0.475,0.316-0.842,0.626-0.818C193.384,204.034,193.607,204.438,193.572,204.913z"/>
		<path style="fill:#FF5652;" d="M195.016,205.276c0,0-1.284,2.66-2.572,3.894c0.782,0.847,2.238,0.595,2.238,0.595L195.016,205.276
			z"/>
		<path style="fill:#263238;" d="M194.48,212.828c1.825-0.109,2.757-1.301,2.8-1.357c0.047-0.061,0.035-0.149-0.026-0.196
			c-0.061-0.047-0.149-0.035-0.196,0.026c-0.011,0.014-1.099,1.398-3.178,1.243c-0.077-0.005-0.144,0.052-0.15,0.129
			c-0.006,0.077,0.052,0.144,0.129,0.15C194.077,212.839,194.284,212.84,194.48,212.828z"/>
		<path style="fill:#263238;" d="M200.887,203.701c0.046-0.003,0.093-0.017,0.135-0.044c0.13-0.084,0.167-0.257,0.083-0.387
			c-0.84-1.3-2.131-1.32-2.186-1.321c-0.155-0.001-0.28,0.124-0.281,0.279c-0.001,0.154,0.123,0.28,0.277,0.281l0,0
			c0.042,0.001,1.049,0.027,1.719,1.065C200.691,203.661,200.789,203.707,200.887,203.701z"/>
		<path style="fill:#263238;" d="M191.232,202.795c0.09,0.012,0.184-0.021,0.247-0.094c0.809-0.934,1.809-0.819,1.851-0.814
			c0.153,0.019,0.293-0.088,0.313-0.241c0.02-0.153-0.086-0.293-0.239-0.314c-0.056-0.006-1.336-0.168-2.349,1.002
			c-0.101,0.117-0.089,0.294,0.028,0.395C191.128,202.767,191.179,202.789,191.232,202.795z"/>
		<g>
			<path style="fill:#407BFF;" d="M151.307,406.256c0.475,0.27,1.044,0.462,1.449,0.578c0.054,0.016,0.112-0.003,0.148-0.047
				c0.035-0.044,0.041-0.105,0.014-0.154c-0.121-0.223-1.201-2.181-1.934-2.212c-0.114-0.005-0.276,0.031-0.404,0.226
				c-0.172,0.263-0.21,0.527-0.113,0.786C150.589,405.76,150.917,406.035,151.307,406.256z M152.501,406.463
				c-0.972-0.32-1.624-0.732-1.772-1.127c-0.065-0.173-0.037-0.349,0.085-0.535c0.06-0.091,0.116-0.101,0.158-0.099
				C151.353,404.717,152.048,405.692,152.501,406.463z"/>
			<path style="fill:#407BFF;" d="M152.726,406.821c0.023,0.013,0.05,0.02,0.077,0.018c0.051-0.003,0.097-0.034,0.118-0.08
				c0.031-0.066,0.749-1.617,0.428-2.444c-0.083-0.215-0.228-0.367-0.43-0.451c0,0,0,0,0,0c-0.311-0.129-0.489,0.007-0.568,0.099
				c-0.433,0.511-0.044,2.22,0.324,2.81C152.689,406.794,152.706,406.81,152.726,406.821z M152.87,404.151
				c0.1,0.057,0.172,0.144,0.219,0.265c0.205,0.53-0.121,1.487-0.306,1.954c-0.301-0.701-0.473-1.923-0.217-2.225
				c0.023-0.028,0.078-0.092,0.247-0.022l0,0C152.833,404.131,152.852,404.141,152.87,404.151z"/>
			<path style="fill:#407BFF;" d="M188.78,410.213c0.049-0.016,0.086-0.059,0.094-0.111c0.009-0.059-0.02-0.117-0.072-0.145
				c-0.266-0.143-2.621-1.383-3.345-0.995c-0.14,0.075-0.221,0.202-0.237,0.369v0c-0.025,0.278,0.059,0.509,0.251,0.684
				c0.639,0.584,2.335,0.378,3.289,0.203C188.768,410.217,188.774,410.215,188.78,410.213z M185.641,409.187
				c0.448-0.147,1.727,0.364,2.657,0.825c-1.307,0.196-2.278,0.124-2.637-0.203c-0.126-0.115-0.179-0.263-0.162-0.452
				c0.007-0.073,0.034-0.117,0.091-0.148C185.606,409.2,185.623,409.193,185.641,409.187z"/>
			<path style="fill:#407BFF;" d="M188.78,410.213c0.013-0.004,0.025-0.01,0.036-0.018c0.041-0.028,0.064-0.076,0.06-0.126
				c-0.005-0.068-0.14-1.661-0.881-2.289c-0.226-0.192-0.486-0.277-0.772-0.252l0,0c-0.385,0.033-0.499,0.226-0.527,0.383
				c-0.118,0.666,1.274,1.965,1.982,2.296C188.71,410.222,188.747,410.224,188.78,410.213z M187.103,407.833
				c0.036-0.012,0.083-0.022,0.143-0.027l0,0c0.212-0.018,0.398,0.043,0.567,0.187c0.488,0.413,0.683,1.368,0.751,1.833
				c-0.721-0.448-1.665-1.467-1.594-1.867C186.976,407.935,186.987,407.872,187.103,407.833z M187.235,407.667l-0.003,0.001
				L187.235,407.667z"/>
		</g>
		<g>
			<path style="fill:#FF8B7B;" d="M218.786,231.651c1.304,2.419,2.427,4.807,3.582,7.24c1.117,2.438,2.17,4.909,3.19,7.407
				c1.02,2.502,1.945,5.057,2.79,7.677l0.612,1.983l0.543,2.038c0.18,0.68,0.32,1.4,0.48,2.098l0.116,0.538l0.116,0.716
				c0.085,0.496,0.086,0.88,0.127,1.324c0.085,1.662-0.038,3.103-0.19,4.528c-0.159,1.417-0.365,2.79-0.602,4.142
				c-0.495,2.698-1.086,5.327-1.756,7.924c-1.328,5.201-2.924,10.255-4.76,15.285l-4.275-1.178
				c0.896-5.127,1.753-10.309,2.515-15.418c0.368-2.559,0.705-5.109,0.935-7.621c0.121-1.253,0.209-2.495,0.25-3.701
				c0.038-1.196,0.027-2.392-0.084-3.354c-0.04-0.207-0.054-0.485-0.105-0.634l-0.057-0.255l-0.122-0.419
				c-0.176-0.574-0.321-1.138-0.518-1.718l-0.592-1.741l-0.646-1.755c-0.892-2.344-1.894-4.686-2.903-7.036
				c-1.029-2.346-2.125-4.676-3.235-7.003c-1.078-2.329-2.251-4.675-3.35-6.935L218.786,231.651z"/>
			<g>
				<path style="fill:#407BFF;" d="M217.324,228.085c4.232,1.325,9.847,18.9,12.062,26.384c1.417,1.269,0.704,3.59,0.704,3.59
					l-8.635,3.81c-2.028-0.961-3.232-3.093-2.485-4.12c-4.518-8.533-8.073-14.905-9.779-19.997
					C206.665,230.214,210.796,226.041,217.324,228.085z"/>
			</g>
			<path style="fill:#263238;" d="M219.355,259.78c-0.876,0.519,1.796,3.255,2.66,4.059s3.72-1.294,5.514-1.811
				c1.794-0.517,3.547,0.818,3.935-1.063c0.206-1,0.009-3.857-0.689-4.452C229.144,255.125,221.448,258.54,219.355,259.78z"/>
			<path style="fill:#FF8B7B;" d="M219.853,290.85l-4.612,3.837l5.737,4.144c0,0,3.776-3.993,2.081-6.382L219.853,290.85z"/>
			<polygon style="fill:#FF8B7B;" points="212.609,300.055 218.286,302.821 220.979,298.831 215.242,294.687 			"/>
		</g>
	</g>
</g>
</svg>
