<?xml version="1.0" encoding="utf-8"?>
<!-- Generator: Adobe Illustrator 27.5.0, SVG Export Plug-In . SVG Version: 6.00 Build 0)  -->
<svg version="1.1" xmlns="http://www.w3.org/2000/svg" xmlns:xlink="http://www.w3.org/1999/xlink" x="0px" y="0px"
	 viewBox="0 0 500 500" style="enable-background:new 0 0 500 500;" xml:space="preserve">
<g id="Background_complete">
	<g>
		<g>
			<g>
				<g>
					<rect y="382.398" style="fill:#E6E6E6;" width="500" height="0.25"/>
					<rect x="343.263" y="392.989" style="fill:#E6E6E6;" width="34.404" height="0.25"/>
					<rect x="91.681" y="393.114" style="fill:#E6E6E6;" width="19.359" height="0.25"/>
					<rect x="211.761" y="392.528" style="fill:#E6E6E6;" width="39.239" height="0.25"/>
					<rect x="193.22" y="388.972" style="fill:#E6E6E6;" width="17.541" height="0.25"/>
					<rect x="371.57" y="389.097" style="fill:#E6E6E6;" width="52.985" height="0.25"/>
					<path style="fill:#E6E6E6;" d="M237.014,337.8H43.915c-3.147,0-5.708-2.561-5.708-5.708V60.66c0-3.147,2.561-5.708,5.708-5.708
						h193.099c3.146,0,5.707,2.561,5.707,5.708v271.432C242.721,335.239,240.16,337.8,237.014,337.8z M43.915,55.203
						c-3.01,0-5.458,2.448-5.458,5.458v271.432c0,3.01,2.448,5.458,5.458,5.458h193.099c3.009,0,5.457-2.448,5.457-5.458V60.66
						c0-3.009-2.448-5.458-5.457-5.458H43.915z"/>
					<path style="fill:#E6E6E6;" d="M453.31,337.8H260.212c-3.146,0-5.707-2.561-5.707-5.708V60.66c0-3.147,2.561-5.708,5.707-5.708
						H453.31c3.148,0,5.708,2.561,5.708,5.708v271.432C459.019,335.239,456.458,337.8,453.31,337.8z M260.212,55.203
						c-3.009,0-5.457,2.448-5.457,5.458v271.432c0,3.01,2.448,5.458,5.457,5.458H453.31c3.01,0,5.458-2.448,5.458-5.458V60.66
						c0-3.009-2.448-5.458-5.458-5.458H260.212z"/>
				</g>
			</g>
		</g>
		<g>
			<g>
				<g>
					<rect x="286.75" y="73.631" style="fill:#E0E0E0;" width="136.28" height="158.796"/>
					<rect x="288.481" y="73.631" style="fill:#F5F5F5;" width="138.253" height="158.796"/>
					<rect x="286.75" y="232.427" style="fill:#E0E0E0;" width="136.28" height="8.897"/>
					<rect x="313.519" y="232.427" style="fill:#F5F5F5;" width="130.148" height="8.897"/>
					
						<rect x="284.945" y="89.088" transform="matrix(-1.836970e-16 1 -1 -1.836970e-16 510.6367 -204.5781)" style="fill:#FAFAFA;" width="145.326" height="127.882"/>
					<polygon style="fill:#FFFFFF;" points="312.065,225.692 342.501,80.367 382.397,80.367 351.962,225.692 					"/>
					<polygon style="fill:#FFFFFF;" points="358.419,225.692 388.854,80.367 406.872,80.367 376.437,225.692 					"/>
				</g>
				<g>
					<path style="fill:#E0E0E0;" d="M282.858,73.402v56.537h14.959c0,0,26.877-17.531,32.984-53.595
						c0.62-3.662-2.184-7.013-5.898-7.013h-37.975C284.681,69.332,282.858,71.154,282.858,73.402z"/>
					<path style="fill:#E0E0E0;" d="M282.858,220.572v-86.069h14.959c0,0,8.6,17.373,17.176,37.357
						C324.887,194.914,307.946,220.572,282.858,220.572L282.858,220.572z"/>
					<path style="fill:#F5F5F5;" d="M297.377,134.504h-13.969c-0.828,0-1.499-0.671-1.499-1.499v-1.567
						c0-0.828,0.671-1.499,1.499-1.499h13.969c0.828,0,1.499,0.671,1.499,1.499v1.567
						C298.876,133.833,298.205,134.504,297.377,134.504z"/>
				</g>
				<g>
					<path style="fill:#E0E0E0;" d="M430.97,73.402v56.537h-14.959c0,0-26.877-17.531-32.984-53.595
						c-0.62-3.662,2.184-7.013,5.898-7.013h37.974C429.147,69.332,430.97,71.154,430.97,73.402z"/>
					<path style="fill:#E0E0E0;" d="M431.1,220.587v-86.069h-14.959c0,0-8.6,17.373-17.176,37.357
						C389.071,194.929,406.013,220.587,431.1,220.587L431.1,220.587z"/>
					<path style="fill:#F5F5F5;" d="M416.451,134.504h13.969c0.828,0,1.499-0.671,1.499-1.499v-1.567
						c0-0.828-0.671-1.499-1.499-1.499h-13.969c-0.828,0-1.499,0.671-1.499,1.499v1.567
						C414.952,133.833,415.623,134.504,416.451,134.504z"/>
				</g>
			</g>
			<g>
				<rect x="140.861" y="143.595" style="fill:#E0E0E0;" width="60.03" height="65.714"/>
				<rect x="144.106" y="143.595" style="fill:#FAFAFA;" width="65.22" height="65.714"/>
				
					<rect x="150.586" y="150.568" transform="matrix(-1.836970e-16 1 -1 -1.836970e-16 353.1676 -0.2646)" style="fill:#FFFFFF;" width="52.26" height="51.767"/>
				<path style="fill:#F5F5F5;" d="M162.984,176.452L162.984,176.452c0-6.816,5.525-12.341,12.341-12.341h2.782
					c6.816,0,12.341,5.525,12.341,12.341l0,0c0,6.816-5.525,12.341-12.341,12.341h-2.782
					C168.509,188.793,162.984,183.268,162.984,176.452z"/>
			</g>
			<g>
				<path style="fill:#E0E0E0;" d="M92.244,159.271c-17.387,0-31.482-14.095-31.482-31.482s14.095-31.482,31.482-31.482h5.684
					v62.965H92.244z"/>
				<circle style="fill:#FAFAFA;" cx="97.929" cy="127.788" r="31.483"/>
				<circle style="fill:#FFFFFF;" cx="97.929" cy="127.788" r="23.737"/>
				<polygon style="fill:#E0E0E0;" points="107.708,136.667 96.053,128.537 99.747,110.552 103.05,111.231 99.804,127.04 
					109.638,133.901 				"/>
			</g>
			<g>
				<g>
					<rect x="309.433" y="270.004" style="fill:#E0E0E0;" width="42.91" height="115.938"/>
					<polygon style="fill:#FAFAFA;" points="340.885,385.942 352.343,385.942 352.343,366.74 328.871,366.74 					"/>
					<rect x="52.177" y="270.004" style="fill:#E0E0E0;" width="42.91" height="115.938"/>
					<rect x="85.087" y="270.004" style="fill:#FAFAFA;" width="267.256" height="109.328"/>
					<polygon style="fill:#FAFAFA;" points="96.545,385.942 85.087,385.942 85.087,366.74 108.559,366.74 					"/>
					<rect x="93.975" y="279.404" style="fill:#F0F0F0;" width="249.479" height="40.243"/>
					<rect x="93.975" y="329.368" style="fill:#F0F0F0;" width="249.479" height="40.243"/>
					<rect x="93.975" y="279.404" style="fill:#E0E0E0;" width="212.898" height="40.243"/>
					<path style="fill:#FAFAFA;" d="M159.543,284.833H146.59c0,0,2.249,7.764,2.249,12.334c0,4.569-9.852,22.48,4.228,22.48
						c14.079,0,4.228-17.911,4.228-22.48C157.294,292.598,159.543,284.833,159.543,284.833z"/>
					<path style="fill:#F0F0F0;" d="M108.559,298.333v7.071c0,7.834,7.576,14.243,16.837,14.243h8.358
						c9.26,0,16.837-6.409,16.837-14.243v-7.071H108.559z"/>
					<rect x="93.975" y="329.368" style="fill:#E0E0E0;" width="212.898" height="40.243"/>
				</g>
				<g>
					<g>
						<g>
							
								<rect x="213.544" y="335.672" transform="matrix(-1 -1.224647e-16 1.224647e-16 -1 447.0299 704.5573)" style="fill:#FFFFFF;" width="19.942" height="33.214"/>
							
								<rect x="230.383" y="336.19" transform="matrix(-1 -1.224647e-16 1.224647e-16 -1 462.1217 705.594)" style="fill:#E6E6E6;" width="1.355" height="33.214"/>
							<path style="fill:#EBEBEB;" d="M231.843,369.657h3.479c0.266,0,0.482-0.216,0.482-0.482v-32.756
								c0-0.266-0.216-0.482-0.482-0.482h-3.479c-0.266,0-0.482,0.216-0.482,0.482v32.756
								C231.361,369.441,231.577,369.657,231.843,369.657z"/>
							
								<rect x="231.361" y="343.637" transform="matrix(-1 -1.224647e-16 1.224647e-16 -1 467.1647 695.1521)" style="fill:#FFFFFF;" width="4.443" height="7.879"/>
							
								<rect x="231.361" y="353.944" transform="matrix(-1 -1.224647e-16 1.224647e-16 -1 467.1647 712.7468)" style="fill:#FFFFFF;" width="4.443" height="4.858"/>
							<path style="fill:#EBEBEB;" d="M212.538,369.657h17.963c0.266,0,0.482-0.216,0.482-0.482v-32.756
								c0-0.266-0.216-0.482-0.482-0.482h-17.963c-0.266,0-0.482,0.216-0.482,0.482v32.756
								C212.055,369.441,212.271,369.657,212.538,369.657z"/>
						</g>
						<g>
							
								<rect x="203.827" y="332.167" transform="matrix(-1 -1.224647e-16 1.224647e-16 -1 429.6535 700.9727)" style="fill:#FFFFFF;" width="21.999" height="36.639"/>
							
								<rect x="222.403" y="332.738" transform="matrix(-1 -1.224647e-16 1.224647e-16 -1 446.3017 702.1163)" style="fill:#E6E6E6;" width="1.495" height="36.639"/>
							<path style="fill:#F0F0F0;" d="M224.013,369.657h3.838c0.294,0,0.532-0.238,0.532-0.532v-36.134
								c0-0.294-0.238-0.532-0.532-0.532h-3.838c-0.294,0-0.532,0.238-0.532,0.532v36.134
								C223.482,369.419,223.72,369.657,224.013,369.657z"/>
							
								<rect x="223.482" y="344.31" transform="matrix(-1 -1.224647e-16 1.224647e-16 -1 451.8647 689.8861)" style="fill:#FFFFFF;" width="4.901" height="1.266"/>
							
								<rect x="223.482" y="347.983" transform="matrix(-1 -1.224647e-16 1.224647e-16 -1 451.8647 697.2325)" style="fill:#FFFFFF;" width="4.901" height="1.266"/>
							
								<rect x="223.482" y="351.656" transform="matrix(-1 -1.224647e-16 1.224647e-16 -1 451.8647 704.5787)" style="fill:#FFFFFF;" width="4.901" height="1.266"/>
							<path style="fill:#F0F0F0;" d="M202.717,369.657h19.816c0.294,0,0.532-0.238,0.532-0.532v-36.134
								c0-0.294-0.238-0.532-0.532-0.532h-19.816c-0.294,0-0.532,0.238-0.532,0.532v36.134
								C202.185,369.419,202.423,369.657,202.717,369.657z"/>
						</g>
					</g>
					<g>
						<path style="fill:#FAFAFA;" d="M176.718,356.894c0,3.113-2.523,5.636-5.636,5.636c-3.113,0-5.636-2.523-5.636-5.636
							c0-3.113,2.523-5.636,5.636-5.636C174.195,351.259,176.718,353.782,176.718,356.894z"/>
						<path style="fill:#FAFAFA;" d="M167.107,359.581c0,2.433-1.973,4.406-4.406,4.406c-2.433,0-4.406-1.972-4.406-4.406
							s1.973-4.406,4.406-4.406C165.134,355.175,167.107,357.147,167.107,359.581z"/>
						<path style="fill:#FAFAFA;" d="M186.365,359.581c0,3.113-2.523,5.636-5.636,5.636c-3.113,0-5.636-2.523-5.636-5.636
							s2.523-5.636,5.636-5.636C183.842,353.944,186.365,356.468,186.365,359.581z"/>
						<path style="fill:#FAFAFA;" d="M195.608,357.925c0,3.113-2.523,5.636-5.636,5.636s-5.636-2.523-5.636-5.636
							c0-3.113,2.523-5.636,5.636-5.636S195.608,354.813,195.608,357.925z"/>
						<path style="fill:#F5F5F5;" d="M147.179,358.661c0,0,0.774,10.996,30.44,10.996c29.666,0,30.44-10.996,30.44-10.996H147.179z"
							/>
						<path style="fill:#FFFFFF;" d="M230.383,308.651c0,0,1.227,10.996,48.243,10.996c47.016,0,48.243-10.996,48.243-10.996
							H230.383z"/>
					</g>
				</g>
			</g>
		</g>
	</g>
</g>
<g id="Background_simple" style="display:none;">
	<g style="display:inline;">
		<path style="fill:#407BFF;" d="M415.357,125.125c4.792,74.556-85.194,155.02-150.066,176.031
			c-62.514,20.247-187.514,12.691-193.899-75.114c-2.4-33.004,16.674-69.013,44.927-86.198
			c45.437-27.637,81.065,9.237,125.853,15.163c35.585,4.709,63.152-11.152,89.844-32.828
			C354.261,104.114,411.762,69.2,415.357,125.125z"/>
		<path style="opacity:0.8;fill:#FFFFFF;" d="M415.357,125.125c4.792,74.556-85.194,155.02-150.066,176.031
			c-62.514,20.247-187.514,12.691-193.899-75.114c-2.4-33.004,16.674-69.013,44.927-86.198
			c45.437-27.637,81.065,9.237,125.853,15.163c35.585,4.709,63.152-11.152,89.844-32.828
			C354.261,104.114,411.762,69.2,415.357,125.125z"/>
	</g>
</g>
<g id="Shadow">
	<ellipse style="fill:#F5F5F5;" cx="250" cy="416.238" rx="193.889" ry="11.323"/>
</g>
<g id="Coins">
	<g>
		<g>
			<g>
				<g>
					
						<ellipse transform="matrix(0.7071 -0.7071 0.7071 0.7071 -129.4263 143.6026)" style="fill:#407BFF;" cx="108.631" cy="228.033" rx="54.162" ry="54.162"/>
					
						<ellipse transform="matrix(0.7071 -0.7071 0.7071 0.7071 -129.4263 143.6026)" style="opacity:0.4;" cx="108.631" cy="228.033" rx="54.162" ry="54.162"/>
				</g>
				
					<ellipse transform="matrix(0.1682 -0.9858 0.9858 0.1682 -134.4226 296.7687)" style="opacity:0.2;" cx="108.631" cy="228.033" rx="45.482" ry="45.482"/>
				<g>
					
						<ellipse transform="matrix(0.071 -0.9975 0.9975 0.071 -125.6573 324.7441)" style="fill:#407BFF;" cx="111.504" cy="229.829" rx="43.659" ry="43.659"/>
					
						<ellipse transform="matrix(0.071 -0.9975 0.9975 0.071 -125.6573 324.7441)" style="opacity:0.4;" cx="111.504" cy="229.829" rx="43.659" ry="43.659"/>
				</g>
			</g>
			<g>
				<g>
					<path style="fill:#407BFF;" d="M126.612,223.862l2.848,12.344c0.222,0.962,0.053,1.88-0.505,2.752
						c-0.558,0.873-1.332,1.424-2.322,1.653l-10.859,2.505l2.006,8.696c0.229,0.99,0.069,1.914-0.478,2.769
						c-0.547,0.857-1.302,1.395-2.263,1.617c-1.018,0.235-1.961,0.088-2.827-0.442c-0.867-0.529-1.414-1.289-1.643-2.279
						l-2.026-8.781l-10.775,2.486c-0.961,0.222-1.876,0.069-2.743-0.462c-0.867-0.529-1.414-1.289-1.643-2.279
						s-0.076-1.911,0.457-2.764c0.533-0.853,1.294-1.393,2.284-1.622l25.197-5.814l-1.184-5.133l-25.112,5.794
						c-0.99,0.229-1.91,0.083-2.759-0.435c-0.85-0.519-1.392-1.288-1.627-2.305l-2.838-12.302c-0.228-0.99-0.077-1.91,0.457-2.763
						c0.533-0.853,1.294-1.393,2.284-1.622l10.69-2.466l-2.007-8.697c-0.222-0.961-0.082-1.872,0.419-2.732
						c0.501-0.859,1.318-1.421,2.449-1.682c0.961-0.222,1.868-0.066,2.721,0.467c0.853,0.533,1.394,1.295,1.622,2.284l2.007,8.697
						l10.944-2.525c0.99-0.228,1.927-0.072,2.811,0.468c0.884,0.54,1.438,1.292,1.66,2.253c0.229,0.99,0.065,1.929-0.49,2.817
						c-0.555,0.887-1.327,1.445-2.317,1.673l-25.197,5.814l1.174,5.09l25.113-5.794c0.99-0.228,1.927-0.072,2.811,0.468
						C125.836,222.15,126.39,222.9,126.612,223.862z"/>
				</g>
				<g style="opacity:0.7;">
					<path style="fill:#FFFFFF;" d="M126.612,223.862l2.848,12.344c0.222,0.962,0.053,1.88-0.505,2.752
						c-0.558,0.873-1.332,1.424-2.322,1.653l-10.859,2.505l2.006,8.696c0.229,0.99,0.069,1.914-0.478,2.769
						c-0.547,0.857-1.302,1.395-2.263,1.617c-1.018,0.235-1.961,0.088-2.827-0.442c-0.867-0.529-1.414-1.289-1.643-2.279
						l-2.026-8.781l-10.775,2.486c-0.961,0.222-1.876,0.069-2.743-0.462c-0.867-0.529-1.414-1.289-1.643-2.279
						s-0.076-1.911,0.457-2.764c0.533-0.853,1.294-1.393,2.284-1.622l25.197-5.814l-1.184-5.133l-25.112,5.794
						c-0.99,0.229-1.91,0.083-2.759-0.435c-0.85-0.519-1.392-1.288-1.627-2.305l-2.838-12.302c-0.228-0.99-0.077-1.91,0.457-2.763
						c0.533-0.853,1.294-1.393,2.284-1.622l10.69-2.466l-2.007-8.697c-0.222-0.961-0.082-1.872,0.419-2.732
						c0.501-0.859,1.318-1.421,2.449-1.682c0.961-0.222,1.868-0.066,2.721,0.467c0.853,0.533,1.394,1.295,1.622,2.284l2.007,8.697
						l10.944-2.525c0.99-0.228,1.927-0.072,2.811,0.468c0.884,0.54,1.438,1.292,1.66,2.253c0.229,0.99,0.065,1.929-0.49,2.817
						c-0.555,0.887-1.327,1.445-2.317,1.673l-25.197,5.814l1.174,5.09l25.113-5.794c0.99-0.228,1.927-0.072,2.811,0.468
						C125.836,222.15,126.39,222.9,126.612,223.862z"/>
				</g>
			</g>
		</g>
		<g>
			<g>
				<g>
					
						<ellipse transform="matrix(0.6454 -0.7639 0.7639 0.6454 -53.3672 206.1311)" style="fill:#407BFF;" cx="195.327" cy="160.544" rx="37.797" ry="37.796"/>
					
						<ellipse transform="matrix(0.6454 -0.7639 0.7639 0.6454 -53.3672 206.1311)" style="opacity:0.4;" cx="195.327" cy="160.544" rx="37.797" ry="37.796"/>
				</g>
				
					<ellipse transform="matrix(0.6372 -0.7707 0.7707 0.6372 -52.8642 208.7944)" style="opacity:0.2;" cx="195.327" cy="160.544" rx="31.739" ry="31.739"/>
				<g>
					
						<ellipse transform="matrix(0.6072 -0.7945 0.7945 0.6072 -51.9707 220.0195)" style="fill:#407BFF;" cx="196.542" cy="162.573" rx="30.467" ry="30.467"/>
					
						<ellipse transform="matrix(0.6072 -0.7945 0.7945 0.6072 -51.9707 220.0195)" style="opacity:0.4;" cx="196.542" cy="162.573" rx="30.467" ry="30.467"/>
				</g>
			</g>
			<g>
				<g>
					<path style="fill:#407BFF;" d="M207.825,163.663l-2.151,8.575c-0.167,0.668-0.564,1.185-1.188,1.55
						c-0.624,0.365-1.28,0.462-1.967,0.289l-7.543-1.892l-1.515,6.041c-0.173,0.688-0.565,1.211-1.176,1.569
						c-0.612,0.359-1.252,0.453-1.92,0.286c-0.707-0.177-1.246-0.568-1.616-1.173c-0.371-0.604-0.469-1.25-0.297-1.938l1.53-6.1
						l-7.484-1.878c-0.668-0.168-1.187-0.553-1.558-1.158c-0.37-0.604-0.469-1.25-0.297-1.938c0.172-0.687,0.56-1.212,1.162-1.572
						c0.602-0.361,1.247-0.455,1.934-0.282l17.503,4.391l0.894-3.566l-17.444-4.376c-0.688-0.173-1.213-0.555-1.576-1.147
						c-0.363-0.592-0.456-1.242-0.279-1.949l2.144-8.546c0.172-0.687,0.559-1.211,1.162-1.572c0.602-0.361,1.247-0.455,1.934-0.282
						l7.426,1.863l1.515-6.041c0.168-0.667,0.543-1.189,1.128-1.565c0.584-0.375,1.27-0.464,2.056-0.267
						c0.667,0.167,1.182,0.552,1.542,1.154c0.361,0.602,0.455,1.247,0.282,1.934l-1.515,6.041l7.602,1.907
						c0.687,0.173,1.22,0.567,1.598,1.184c0.378,0.617,0.483,1.259,0.316,1.927c-0.173,0.688-0.572,1.219-1.199,1.595
						c-0.626,0.375-1.284,0.476-1.971,0.304l-17.503-4.391l-0.887,3.536l17.444,4.376c0.687,0.172,1.22,0.568,1.598,1.184
						C207.886,162.353,207.992,162.995,207.825,163.663z"/>
				</g>
				<g style="opacity:0.7;">
					<path style="fill:#FFFFFF;" d="M207.825,163.663l-2.151,8.575c-0.167,0.668-0.564,1.185-1.188,1.55
						c-0.624,0.365-1.28,0.462-1.967,0.289l-7.543-1.892l-1.515,6.041c-0.173,0.688-0.565,1.211-1.176,1.569
						c-0.612,0.359-1.252,0.453-1.92,0.286c-0.707-0.177-1.246-0.568-1.616-1.173c-0.371-0.604-0.469-1.25-0.297-1.938l1.53-6.1
						l-7.484-1.878c-0.668-0.168-1.187-0.553-1.558-1.158c-0.37-0.604-0.469-1.25-0.297-1.938c0.172-0.687,0.56-1.212,1.162-1.572
						c0.602-0.361,1.247-0.455,1.934-0.282l17.503,4.391l0.894-3.566l-17.444-4.376c-0.688-0.173-1.213-0.555-1.576-1.147
						c-0.363-0.592-0.456-1.242-0.279-1.949l2.144-8.546c0.172-0.687,0.559-1.211,1.162-1.572c0.602-0.361,1.247-0.455,1.934-0.282
						l7.426,1.863l1.515-6.041c0.168-0.667,0.543-1.189,1.128-1.565c0.584-0.375,1.27-0.464,2.056-0.267
						c0.667,0.167,1.182,0.552,1.542,1.154c0.361,0.602,0.455,1.247,0.282,1.934l-1.515,6.041l7.602,1.907
						c0.687,0.173,1.22,0.567,1.598,1.184c0.378,0.617,0.483,1.259,0.316,1.927c-0.173,0.688-0.572,1.219-1.199,1.595
						c-0.626,0.375-1.284,0.476-1.971,0.304l-17.503-4.391l-0.887,3.536l17.444,4.376c0.687,0.172,1.22,0.568,1.598,1.184
						C207.886,162.353,207.992,162.995,207.825,163.663z"/>
				</g>
			</g>
		</g>
	</g>
</g>
<g id="Credit_card">
	<g>
		<g>
			<rect x="102.257" y="388.973" style="fill:#407BFF;" width="1" height="11.288"/>
			<rect x="102.257" y="388.973" style="opacity:0.1;" width="1" height="11.288"/>
		</g>
		<g>
			<rect x="396.743" y="299.525" style="fill:#407BFF;" width="1" height="15.475"/>
			<rect x="396.743" y="323.112" style="fill:#407BFF;" width="1" height="8.388"/>
			<rect x="396.743" y="299.525" style="opacity:0.1;" width="1" height="15.475"/>
			<rect x="396.743" y="323.112" style="opacity:0.1;" width="1" height="8.388"/>
		</g>
		<g>
			<g>
				<path style="fill:#407BFF;" d="M379.192,413.785H120.808c-8.278,0-15.051-6.773-15.051-15.051V247.49
					c0-8.278,6.773-15.051,15.051-15.051h258.384c8.278,0,15.051,6.773,15.051,15.051v151.244
					C394.243,407.012,387.47,413.785,379.192,413.785z"/>
				<path style="opacity:0.2;" d="M379.192,413.785H120.808c-8.278,0-15.051-6.773-15.051-15.051V247.49
					c0-8.278,6.773-15.051,15.051-15.051h258.384c8.278,0,15.051,6.773,15.051,15.051v151.244
					C394.243,407.012,387.47,413.785,379.192,413.785z"/>
			</g>
			<g>
				<path style="fill:#407BFF;" d="M347.545,295.587c10.309,0,18.666-8.357,18.666-18.666c0-10.309-8.357-18.666-18.666-18.666
					h-24.091c-10.309,0-18.666,8.357-18.666,18.666c0,10.309,8.357,18.666,18.666,18.666H347.545z"/>
				<g>
					<path style="fill:#407BFF;" d="M184.729,337.62h-44.457c-3.566,0-6.484-2.918-6.484-6.484v-29.065
						c0-3.566,2.918-6.484,6.484-6.484h44.457c3.566,0,6.484,2.918,6.484,6.484v29.065
						C191.212,334.702,188.295,337.62,184.729,337.62z"/>
					<path style="opacity:0.3;fill:#FFFFFF;" d="M184.729,337.62h-44.457c-3.566,0-6.484-2.918-6.484-6.484v-29.065
						c0-3.566,2.918-6.484,6.484-6.484h44.457c3.566,0,6.484,2.918,6.484,6.484v29.065
						C191.212,334.702,188.295,337.62,184.729,337.62z"/>
				</g>
				<g>
					<path style="fill:#407BFF;" d="M215.514,262.842h-77.139c-2.523,0-4.587-2.064-4.587-4.587v0c0-2.523,2.064-4.587,4.587-4.587
						h77.139c2.523,0,4.588,2.064,4.588,4.587v0C220.101,260.777,218.037,262.842,215.514,262.842z"/>
					<path style="opacity:0.3;fill:#FFFFFF;" d="M215.514,262.842h-77.139c-2.523,0-4.587-2.064-4.587-4.587v0
						c0-2.523,2.064-4.587,4.587-4.587h77.139c2.523,0,4.588,2.064,4.588,4.587v0C220.101,260.777,218.037,262.842,215.514,262.842z
						"/>
				</g>
				<g>
					<path style="fill:#407BFF;" d="M175.21,378.222h-34.693c-3.702,0-6.73-3.028-6.73-6.73v-6.286c0-3.702,3.028-6.73,6.73-6.73
						h34.693c3.701,0,6.73,3.028,6.73,6.73v6.286C181.94,375.194,178.912,378.222,175.21,378.222z"/>
					<path style="opacity:0.3;fill:#FFFFFF;" d="M175.21,378.222h-34.693c-3.702,0-6.73-3.028-6.73-6.73v-6.286
						c0-3.702,3.028-6.73,6.73-6.73h34.693c3.701,0,6.73,3.028,6.73,6.73v6.286C181.94,375.194,178.912,378.222,175.21,378.222z"/>
				</g>
				<g>
					<path style="fill:#407BFF;" d="M236.634,378.222h-34.693c-3.701,0-6.73-3.028-6.73-6.73v-6.286c0-3.702,3.029-6.73,6.73-6.73
						h34.693c3.701,0,6.73,3.028,6.73,6.73v6.286C243.364,375.194,240.335,378.222,236.634,378.222z"/>
					<path style="opacity:0.3;fill:#FFFFFF;" d="M236.634,378.222h-34.693c-3.701,0-6.73-3.028-6.73-6.73v-6.286
						c0-3.702,3.029-6.73,6.73-6.73h34.693c3.701,0,6.73,3.028,6.73,6.73v6.286C243.364,375.194,240.335,378.222,236.634,378.222z"
						/>
				</g>
				<g>
					<path style="fill:#407BFF;" d="M298.058,378.222h-34.693c-3.701,0-6.73-3.028-6.73-6.73v-6.286c0-3.702,3.028-6.73,6.73-6.73
						h34.693c3.701,0,6.73,3.028,6.73,6.73v6.286C304.788,375.194,301.759,378.222,298.058,378.222z"/>
					<path style="opacity:0.3;fill:#FFFFFF;" d="M298.058,378.222h-34.693c-3.701,0-6.73-3.028-6.73-6.73v-6.286
						c0-3.702,3.028-6.73,6.73-6.73h34.693c3.701,0,6.73,3.028,6.73,6.73v6.286C304.788,375.194,301.759,378.222,298.058,378.222z"
						/>
				</g>
				<g>
					<path style="fill:#407BFF;" d="M359.482,378.222h-34.693c-3.702,0-6.73-3.028-6.73-6.73v-6.286c0-3.702,3.028-6.73,6.73-6.73
						h34.693c3.702,0,6.73,3.028,6.73,6.73v6.286C366.212,375.194,363.183,378.222,359.482,378.222z"/>
					<path style="opacity:0.3;fill:#FFFFFF;" d="M359.482,378.222h-34.693c-3.702,0-6.73-3.028-6.73-6.73v-6.286
						c0-3.702,3.028-6.73,6.73-6.73h34.693c3.702,0,6.73,3.028,6.73,6.73v6.286C366.212,375.194,363.183,378.222,359.482,378.222z"
						/>
				</g>
			</g>
		</g>
	</g>
</g>
<g id="Character">
	<g>
		<path style="fill:#E4897B;" d="M292.99,166.819c-2.369,6.69-4.957,13.162-7.789,19.635c-2.878,6.452-5.884,12.837-9.705,19.139
			c-0.481,0.789-1.02,1.581-1.529,2.369l-0.387,0.591l-0.534,0.727c-0.353,0.456-0.692,0.863-1.03,1.248
			c-1.339,1.52-2.67,2.774-4.008,4.014c-2.665,2.465-5.389,4.709-8.139,6.914c-5.515,4.385-11.156,8.487-17.01,12.379l-3.492-4.335
			l14.767-14.497c2.43-2.408,4.834-4.841,7.087-7.269c1.115-1.211,2.194-2.456,3.082-3.597c0.216-0.281,0.412-0.557,0.573-0.799
			l0.213-0.337l0.295-0.516c0.391-0.695,0.796-1.359,1.178-2.074c3.061-5.753,5.757-12.045,8.354-18.335
			c2.581-6.301,5.102-12.734,7.504-19.071L292.99,166.819z"/>
		<g>
			<path style="fill:#407BFF;" d="M295.81,161.992c2.268,6.633-11.067,26.166-11.067,26.166l-12.788-7.078
				c0,0,3.481-9.936,7.68-17.803C284.141,154.836,293.321,154.713,295.81,161.992z"/>
			<path style="opacity:0.7;fill:#FFFFFF;" d="M295.81,161.992c2.268,6.633-11.067,26.166-11.067,26.166l-12.788-7.078
				c0,0,3.481-9.936,7.68-17.803C284.141,154.836,293.321,154.713,295.81,161.992z"/>
		</g>
		<path style="opacity:0.31;fill:#407BFF;" d="M296.004,162.832c-2.86-1.376-6.159-0.225-9.622,5.254
			c-3.419,5.422-6.424,14.635-6.747,17.247l5.11,2.826C284.745,188.158,297.057,170.122,296.004,162.832z"/>
		<g>
			<path style="fill:#407BFF;" d="M287.183,156.919c0,0-9.526,22.387-2.662,64.079c11.948,0,33.839,0,39.653,0
				c0.484-6.087-2.31-35.78,4.555-64.461c0,0-6.75-1.364-13.216-1.676c-5.058-0.244-12.388-0.406-16.856,0.001
				C292.767,155.398,287.183,156.919,287.183,156.919z"/>
			<path style="opacity:0.7;fill:#FFFFFF;" d="M287.183,156.919c0,0-9.526,22.387-2.662,64.079c11.948,0,33.839,0,39.653,0
				c0.484-6.087-2.31-35.78,4.555-64.461c0,0-6.75-1.364-13.216-1.676c-5.058-0.244-12.388-0.406-16.856,0.001
				C292.767,155.398,287.183,156.919,287.183,156.919z"/>
		</g>
		<polygon style="fill:#E4897B;" points="338.215,398.627 332.337,403.886 321.154,392.239 327.031,386.979 		"/>
		<polygon style="fill:#E4897B;" points="318.085,409.575 310.672,409.575 309.709,392.407 317.122,392.407 		"/>
		<g>
			<polygon style="fill:#CE6F64;" points="321.158,392.241 326.921,398.246 332.802,392.984 327.038,386.979 			"/>
			<polygon style="fill:#CE6F64;" points="317.124,392.412 309.708,392.412 310.208,401.261 317.624,401.261 			"/>
		</g>
		<g>
			<g>
				<path style="fill:#407BFF;" d="M284.521,220.998c0,0-7.809,54.058-10.475,83.485c-2.139,23.603,48.911,94.032,48.911,94.032
					l9.876-9.293c0,0-37.288-63.111-34.418-89.389c2.78-25.454,12.205-78.836,12.205-78.836H284.521z"/>
				<path style="opacity:0.7;" d="M284.521,220.998c0,0-7.809,54.058-10.475,83.485c-2.139,23.603,48.911,94.032,48.911,94.032
					l9.876-9.293c0,0-37.288-63.111-34.418-89.389c2.78-25.454,12.205-78.836,12.205-78.836H284.521z"/>
			</g>
			<path style="opacity:0.2;" d="M298.42,299.83c1.43-13.11,4.63-33.65,7.38-50.47c-1.44-2.82-5.478-8.527-5.478-8.527
				c-3.62,12.51-11.488,59.667-0.262,123.357c11.7,18.86,22.9,34.32,22.9,34.32l1.53-24.32
				C313.68,353.85,296.43,318.02,298.42,299.83z"/>
			<g>
				<path style="fill:#407BFF;" d="M298.621,220.998c0,0-0.706,56.656,0.497,77.881c1.317,23.243,7.91,100.246,7.91,100.246h13.578
					c0,0-0.405-75.126,0.413-98.139c0.888-24.977,3.188-79.988,3.188-79.988H298.621z"/>
				<path style="opacity:0.7;" d="M298.621,220.998c0,0-0.706,56.656,0.497,77.881c1.317,23.243,7.91,100.246,7.91,100.246h13.578
					c0,0-0.405-75.126,0.413-98.139c0.888-24.977,3.188-79.988,3.188-79.988H298.621z"/>
			</g>
		</g>
		<path style="fill:#263238;" d="M310.283,408.717h8.329c0.303,0,0.532,0.21,0.55,0.506l0.404,6.59
			c0.042,0.684-0.6,1.33-1.298,1.318c-2.9-0.05-4.285-0.221-7.948-0.221c-2.253,0-11.833,0.234-14.945,0.234
			c-3.044,0-3.023-3.077-1.704-3.356c5.913-1.25,13.242-2.973,15.335-4.617C309.384,408.876,309.84,408.717,310.283,408.717z"/>
		<path style="fill:#263238;" d="M330.716,401.776l7.145-4.81c0.267-0.18,0.607-0.17,0.818,0.023l5.461,5.511
			c0.485,0.447,0.327,1.217-0.263,1.671c-4.558,3.51-7.851,6.16-10.445,9.079c-3.033,3.413-4.625,3.895-11.625,3.895
			c-3.238,0-5.069-2.727-3.75-3.145c11.667-3.694,8.548-5.3,11.381-10.709C329.745,402.703,330.151,402.156,330.716,401.776z"/>
		<path style="fill:#E4897B;" d="M241.111,228.556l-7.73,0.278l1.619,6.056c0,0,8.083,0.716,8.803-1.719L241.111,228.556z"/>
		<polygon style="fill:#E4897B;" points="225.042,232.438 230.457,235.605 235,234.889 233.381,228.833 		"/>
		<path style="opacity:0.31;fill:#407BFF;" d="M319.87,163.618c-0.824,4.72,0.273,16.013,4.316,29.063
			c0.362-10.043,1.37-21.688,3.894-33.291l0.002-0.056C325.478,159.067,320.656,159.194,319.87,163.618z"/>
		<path style="fill:#E4897B;" d="M314.502,135.881c-1.251,5.424-2.657,15.361,1.012,18.98c0,0-1.583,4.493-11.661,4.493
			c-11.081,0-5.195-4.493-5.195-4.493c6.098-1.444,6.098-5.932,5.19-10.146L314.502,135.881z"/>
		<g>
			<polygon style="fill:#407BFF;" points="303.556,159.354 300.563,162.544 302.029,165.619 304.415,165.734 306.458,162.794 			"/>
		</g>
		<path style="fill:#CE6F64;" d="M310.158,139.486l-6.306,5.225c0.218,0.997,0.38,2.009,0.416,2.992
			c2.322-0.334,5.584-2.87,5.913-5.289C310.346,141.208,310.335,140.048,310.158,139.486z"/>
		<path style="fill:#263238;" d="M301.354,117.498c-3.798,1.29-6.821,11.339-2.405,13.993
			C303.365,134.145,308.547,115.055,301.354,117.498z"/>
		<path style="fill:#E4897B;" d="M316.872,130.198c-2.259,7.023-3.222,11.236-7.779,14.098c-6.854,4.304-14.877-0.894-14.773-8.375
			c0.093-6.734,3.772-17.088,11.518-18.385C313.469,116.257,319.131,123.174,316.872,130.198z"/>
		<path style="fill:#263238;" d="M322.465,118.505c-2.254,5.453,3.011,0.898,1.649,7.371c-0.889,4.226-8.501,14.336-11.445,13.413
			c-2.944-0.924-2.907-8.084,0.845-13.156c2.152-2.91-2.519-6.209-13.017-5.865c-10.497,0.344-16.831-5.545-2.886-9.878
			c0,0-5.139,2.972-2.088,4.055C299.848,115.98,326.987,107.565,322.465,118.505z"/>
		<path style="fill:#263238;" d="M320.466,121.029c-0.103-0.048,2.351-0.613,3.661-4.959
			C324.126,116.07,323.703,122.538,320.466,121.029z"/>
		<path style="fill:#263238;" d="M300.842,111.361c-6.449,2.039-3.78,4.251-1.113,4.806l6.117-2.396
			C296.555,114.949,300.842,111.361,300.842,111.361z"/>
		<path style="fill:#E4897B;" d="M318.108,138.754c-1.436,1.414-3.38,2.063-5.022,2.062c-2.47-0.001-2.968-2.337-1.664-4.292
			c1.174-1.76,3.874-3.88,6.056-2.938C319.628,134.515,319.749,137.137,318.108,138.754z"/>
		<path style="fill:#263238;" d="M305.482,129.807c-0.148,0.58-0.578,0.982-0.96,0.898c-0.382-0.084-0.571-0.621-0.423-1.201
			c0.148-0.58,0.578-0.982,0.96-0.898C305.441,128.689,305.63,129.227,305.482,129.807z"/>
		<path style="fill:#263238;" d="M298.879,128.362c-0.148,0.58-0.578,0.982-0.959,0.898c-0.382-0.083-0.571-0.621-0.423-1.201
			c0.148-0.58,0.578-0.982,0.96-0.898C298.838,127.245,299.027,127.782,298.879,128.362z"/>
		<path style="fill:#DE5753;" d="M300.905,129.11c0,0-2.182,3.054-4.057,4.348c0.789,1.183,2.658,1.13,2.658,1.13L300.905,129.11z"
			/>
		<path style="fill:#263238;" d="M302.029,136.697c-0.382,0-0.79-0.04-1.225-0.135c-0.095-0.02-0.155-0.114-0.135-0.209
			c0.021-0.095,0.117-0.155,0.209-0.134c2.571,0.56,4.222-0.957,4.238-0.972c0.072-0.066,0.183-0.063,0.248,0.008
			c0.066,0.071,0.063,0.182-0.008,0.248C305.297,135.56,304.058,136.697,302.029,136.697z"/>
		<path style="fill:#263238;" d="M308.099,128.14c-0.136,0-0.265-0.079-0.322-0.211c-0.605-1.391-1.849-1.601-1.901-1.609
			c-0.19-0.03-0.322-0.208-0.294-0.399c0.029-0.191,0.199-0.321,0.397-0.295c0.068,0.01,1.678,0.265,2.442,2.025
			c0.077,0.178-0.005,0.384-0.183,0.462C308.193,128.13,308.145,128.14,308.099,128.14z"/>
		<path style="fill:#263238;" d="M296.65,125.489c-0.079,0-0.159-0.027-0.225-0.082c-0.149-0.124-0.169-0.346-0.045-0.495
			c1.257-1.504,2.871-1.376,2.942-1.371c0.192,0.018,0.335,0.188,0.317,0.381c-0.018,0.192-0.186,0.335-0.38,0.318
			c-0.063-0.004-1.331-0.088-2.341,1.122C296.851,125.446,296.751,125.489,296.65,125.489z"/>
		<path style="fill:#E4897B;" d="M330.645,161.653c0.784,1.21,1.44,2.277,2.095,3.436c0.655,1.138,1.289,2.282,1.906,3.436
			c1.226,2.313,2.375,4.671,3.428,7.088c2.087,4.844,3.909,9.874,4.957,15.346l0.103,0.509l0.051,0.255l0.07,0.417
			c0.097,0.607,0.12,1.156,0.127,1.692c-0.006,1.05-0.131,1.97-0.304,2.818c-0.362,1.687-0.888,3.115-1.46,4.456
			c-1.141,2.675-2.552,4.98-3.994,7.215c-2.955,4.43-6.22,8.369-9.879,12.128l-4.386-3.428c2.427-4.225,4.834-8.6,6.855-12.893
			c1.021-2.136,1.904-4.316,2.534-6.342c0.308-1.008,0.523-1.991,0.587-2.779c0.035-0.389,0.035-0.724,0.003-0.929
			c-0.021-0.09-0.037-0.17-0.057-0.18c-0.008-0.018,0.003,0.023-0.017-0.045l-0.06-0.203l-0.119-0.406
			c-0.577-2.154-1.412-4.334-2.25-6.504c-0.879-2.167-1.864-4.328-2.889-6.477c-1.046-2.144-2.147-4.277-3.284-6.393
			c-0.564-1.06-1.144-2.114-1.739-3.153l-1.758-3.034L330.645,161.653z"/>
		<path style="fill:#FFFFFF;" d="M307.655,410.011c-0.576,0-1.099-0.099-1.394-0.392c-0.232-0.23-0.306-0.547-0.217-0.94
			c0.053-0.239,0.192-0.409,0.403-0.491c0.916-0.358,3.008,1.079,3.244,1.243c0.057,0.04,0.085,0.109,0.072,0.178
			c-0.014,0.068-0.065,0.122-0.133,0.138C309.099,409.87,308.34,410.011,307.655,410.011z M306.79,408.48
			c-0.082,0-0.153,0.011-0.214,0.034c-0.064,0.025-0.152,0.076-0.19,0.24c-0.06,0.272-0.021,0.474,0.122,0.614
			c0.343,0.342,1.315,0.384,2.639,0.122C308.395,409.014,307.36,408.48,306.79,408.48z"/>
		<path style="fill:#FFFFFF;" d="M309.592,409.751c-0.031,0-0.063-0.009-0.09-0.025c-0.739-0.439-1.846-1.989-1.675-2.799
			c0.064-0.297,0.287-0.483,0.63-0.525c0.282-0.032,0.533,0.047,0.734,0.242c0.749,0.723,0.583,2.855,0.575,2.946
			c-0.005,0.061-0.041,0.113-0.095,0.142C309.646,409.744,309.619,409.751,309.592,409.751z M308.578,406.745
			c-0.025,0-0.053,0.002-0.08,0.006c-0.249,0.029-0.306,0.148-0.327,0.249c-0.111,0.527,0.62,1.697,1.263,2.243
			c0.021-0.704-0.041-1.918-0.485-2.347C308.843,406.796,308.721,406.745,308.578,406.745z"/>
		<path style="fill:#FFFFFF;" d="M325.915,405.797c-0.199,0-0.381-0.028-0.536-0.093c-0.272-0.113-0.451-0.322-0.53-0.621
			c-0.048-0.182-0.01-0.354,0.109-0.497c0.671-0.808,4.185-0.569,4.583-0.54c0.077,0.006,0.141,0.061,0.158,0.135
			c0.018,0.075-0.016,0.152-0.082,0.191C328.644,404.943,327.005,405.797,325.915,405.797z M328.042,404.343
			c-1.236,0-2.521,0.114-2.814,0.468c-0.047,0.057-0.059,0.111-0.04,0.183c0.05,0.19,0.156,0.316,0.325,0.387
			c0.559,0.231,1.816-0.148,3.41-1.019C328.643,404.35,328.344,404.343,328.042,404.343z"/>
		<path style="fill:#FFFFFF;" d="M329.528,404.397c-0.001,0-0.003,0-0.004,0c-1.022-0.024-3.254-0.766-3.427-1.57
			c-0.042-0.195,0.008-0.476,0.48-0.702c1.724-0.815,3.053,1.904,3.108,2.021c0.026,0.055,0.023,0.12-0.011,0.171
			C329.644,404.366,329.588,404.397,329.528,404.397z M327.216,402.327c-0.159,0-0.321,0.035-0.486,0.113
			c-0.214,0.103-0.311,0.207-0.288,0.313c0.101,0.469,1.714,1.129,2.777,1.267C328.903,403.477,328.126,402.327,327.216,402.327z"/>
		<path style="fill:#E4897B;" d="M325.34,215.379l-7.382-1.286l3.788,8.544c0,0,6.738-0.039,6.429-3.512L325.34,215.379z"/>
		<polygon style="fill:#E4897B;" points="312.452,218.387 315.919,225.29 321.747,222.637 317.958,214.093 		"/>
		<g>
			<polygon style="fill:#407BFF;" points="333.433,388.658 322.357,399.08 318.792,395.25 331.458,383.708 			"/>
			<polygon style="opacity:0.6;fill:#FFFFFF;" points="333.433,388.658 322.357,399.08 318.792,395.25 331.458,383.708 			"/>
		</g>
		<g>
			<polygon style="fill:#407BFF;" points="321.154,399.125 306.481,399.125 305.667,393.972 321.861,394.778 			"/>
			<polygon style="opacity:0.6;fill:#FFFFFF;" points="321.154,399.125 306.481,399.125 305.667,393.972 321.861,394.778 			"/>
		</g>
		<g>
			<path style="fill:#407BFF;" d="M328.729,156.537c6.979,1.02,14.169,25.325,14.169,25.325l-15.02,8.321
				c0,0-6.087-11.56-8.989-20.144C315.849,161.045,321.244,155.443,328.729,156.537z"/>
			<path style="opacity:0.7;fill:#FFFFFF;" d="M328.729,156.537c6.979,1.02,14.169,25.325,14.169,25.325l-15.02,8.321
				c0,0-6.087-11.56-8.989-20.144C315.849,161.045,321.244,155.443,328.729,156.537z"/>
		</g>
		<g>
			<polygon style="opacity:0.2;" points="303.556,159.354 300.563,162.544 302.029,165.619 304.415,165.734 306.458,162.794 			"/>
			<g>
				<path style="fill:#407BFF;" d="M302.292,165.074c0,0-5.693,23.569-5.917,28.468c-0.307,6.736,2.514,18.25,2.514,18.25
					s4-9.569,4.819-18.458c0.807-8.761,0.208-23.27,0.583-28.26H302.292z"/>
				<path style="opacity:0.2;" d="M302.292,165.074c0,0-5.693,23.569-5.917,28.468c-0.307,6.736,2.514,18.25,2.514,18.25
					s4-9.569,4.819-18.458c0.807-8.761,0.208-23.27,0.583-28.26H302.292z"/>
			</g>
		</g>
		<g>
			<path style="fill:#407BFF;" d="M303.556,159.354c1.826,2.674,1.928,6.106,1.928,6.106s12.473-4.4,11.891-10.847
				c0,0-1.77-1.051-2.895-1.905C314.479,152.708,314.056,156.772,303.556,159.354z"/>
			<path style="opacity:0.6;fill:#FFFFFF;" d="M303.556,159.354c1.826,2.674,1.928,6.106,1.928,6.106s12.473-4.4,11.891-10.847
				c0,0-1.77-1.051-2.895-1.905C314.479,152.708,314.056,156.772,303.556,159.354z"/>
		</g>
		<g>
			<path style="fill:#407BFF;" d="M303.556,159.354c-1.827,2.674-2.432,5.719-2.432,5.719s-5.651-3.824-3.955-10.197
				c0,0,1.595-0.668,3.193-1.015C300.362,153.861,299.621,157.975,303.556,159.354z"/>
			<path style="opacity:0.6;fill:#FFFFFF;" d="M303.556,159.354c-1.827,2.674-2.432,5.719-2.432,5.719s-5.651-3.824-3.955-10.197
				c0,0,1.595-0.668,3.193-1.015C300.362,153.861,299.621,157.975,303.556,159.354z"/>
		</g>
	</g>
</g>
</svg>
