<?xml version="1.0" encoding="UTF-8"?>
<svg version="1.1" xmlns="http://www.w3.org/2000/svg" width="240" height="240">
<path d="M0 0 C79.2 0 158.4 0 240 0 C240 79.2 240 158.4 240 240 C160.8 240 81.6 240 0 240 C0 160.8 0 81.6 0 0 Z " fill="#FEFEFE" transform="translate(0,0)"/>
<path d="M0 0 C1.07950928 -0.0038269 2.15901855 -0.00765381 3.27124023 -0.01159668 C5.54379209 -0.01430738 7.8163756 -0.00700553 10.08886719 0.00976562 C13.55214507 0.03118595 17.01334856 0.00993377 20.4765625 -0.015625 C22.69271288 -0.01298158 24.90886197 -0.0078563 27.125 0 C28.15230225 -0.00809692 29.17960449 -0.01619385 30.23803711 -0.02453613 C37.53538654 0.06987035 43.27153175 1.33395257 48.62109375 6.53125 C49.07613281 7.19125 49.53117188 7.85125 50 8.53125 C50.47308594 9.19125 50.94617188 9.85125 51.43359375 10.53125 C53.64368271 14.44670173 53.69203509 18.12978001 53.70967102 22.57035828 C53.72040398 24.4270388 53.72040398 24.4270388 53.73135376 26.32122803 C53.73419383 27.69030737 53.73690558 29.05938697 53.73950195 30.4284668 C53.7457696 31.87256533 53.75241667 33.31666226 53.75941467 34.76075745 C53.78042337 39.50064986 53.79081475 44.24054248 53.80078125 48.98046875 C53.80483014 50.6147291 53.8089471 52.24898928 53.81313133 53.88324928 C53.83217678 61.56285214 53.84640861 69.24244542 53.8547433 76.92206734 C53.86451067 85.77463947 53.89081971 94.62696122 53.93124419 103.47944516 C53.96144765 110.32971806 53.97621622 117.17991935 53.97952431 124.03025752 C53.98187016 128.11793278 53.99076953 132.20534037 54.01598549 136.29294395 C54.03934529 140.14177281 54.04346803 143.99015925 54.03322411 147.83904076 C54.03273053 149.24626644 54.03899811 150.65351448 54.05278015 152.06067276 C54.13064351 160.4867172 54.05245113 168.52051984 48.15051746 175.10700512 C42.99560383 179.70851078 38.352059 180.78068807 31.59243774 180.79194641 C30.90298423 180.79577196 30.21353072 180.79959751 29.50318468 180.80353898 C27.19947331 180.81383439 24.89601279 180.80988347 22.59228516 180.8059082 C20.93789947 180.81025662 19.28351581 180.81544021 17.62913513 180.82139587 C13.13941227 180.83478384 8.64977359 180.83536472 4.16003466 180.83283257 C0.41007637 180.83176262 -3.33986491 180.83664691 -7.08981955 180.841438 C-15.93814786 180.85253271 -24.78643372 180.85297094 -33.63476562 180.84692383 C-42.75803684 180.8408846 -51.88115381 180.85319384 -61.0043987 180.8744939 C-68.84149672 180.89211732 -76.67854568 180.89811004 -84.51566279 180.89485615 C-89.1945195 180.89304417 -93.87326621 180.89567092 -98.55210495 180.90957069 C-102.95327429 180.92215629 -107.35420348 180.92019802 -111.75536919 180.90715981 C-113.36821639 180.90479598 -114.98108053 180.90752176 -116.59390831 180.91578293 C-118.80070615 180.92626906 -121.00670096 180.91813558 -123.21347046 180.9054718 C-125.06344666 180.90572341 -125.06344666 180.90572341 -126.95079613 180.90598011 C-132.94332821 180.26193855 -138.19481598 177.88860116 -142.4375 173.53125 C-147.38887527 165.96523672 -147.00754677 157.71495411 -146.93359375 149.0234375 C-146.93374903 147.52849253 -146.93524281 146.03354716 -146.93800354 144.53860474 C-146.93938109 141.42024732 -146.92693572 138.30235347 -146.90405273 135.18408203 C-146.87562002 131.20187079 -146.87842726 127.22042566 -146.89114285 123.23815727 C-146.89812001 120.15647925 -146.89028845 117.07497614 -146.87788582 113.99332047 C-146.87339455 112.52541908 -146.87301403 111.05749877 -146.87695122 109.58959579 C-146.879885 107.53444066 -146.86325782 105.48031714 -146.84155273 103.42529297 C-146.83614975 102.2599704 -146.83074677 101.09464783 -146.82518005 99.89401245 C-146.1380029 93.93339232 -143.70966119 88.80341119 -139.4375 84.53125 C-133.39728684 80.43319132 -127.95617383 79.98423317 -120.8125 80.140625 C-119.82499756 80.14628479 -118.83749512 80.15194458 -117.82006836 80.15777588 C-114.69203482 80.18001631 -111.56518239 80.23018973 -108.4375 80.28125 C-106.30600622 80.30133093 -104.17449434 80.3195789 -102.04296875 80.3359375 C-96.84074858 80.37984027 -91.6392087 80.44662725 -86.4375 80.53125 C-86.45844727 79.81582031 -86.47939453 79.10039063 -86.50097656 78.36328125 C-86.58470833 75.08608348 -86.63634051 71.80911159 -86.6875 68.53125 C-86.72101563 67.40589844 -86.75453125 66.28054687 -86.7890625 65.12109375 C-86.86803957 58.36855394 -86.5283824 53.08479426 -82.4375 47.53125 C-80.40234375 45.47265625 -80.40234375 45.47265625 -78.375 44.09375 C-77.70339844 43.62066406 -77.03179687 43.14757812 -76.33984375 42.66015625 C-73.16535601 40.77632266 -70.57441033 40.4076172 -66.96606445 40.41772461 C-65.61500359 40.41783791 -65.61500359 40.41783791 -64.23664856 40.41795349 C-63.26781235 40.42311478 -62.29897614 40.42827606 -61.30078125 40.43359375 C-59.80891548 40.43571617 -59.80891548 40.43571617 -58.28691101 40.43788147 C-55.10791018 40.44348239 -51.92897957 40.45603504 -48.75 40.46875 C-46.59570414 40.47376488 -44.44140718 40.47832781 -42.28710938 40.48242188 C-37.00388226 40.49345212 -31.72069615 40.51019114 -26.4375 40.53125 C-26.45321045 39.84087646 -26.4689209 39.15050293 -26.48510742 38.43920898 C-26.54783453 35.28247412 -26.58661 32.12587085 -26.625 28.96875 C-26.65013672 27.88271484 -26.67527344 26.79667969 -26.70117188 25.67773438 C-26.77112939 18.00572732 -25.8462262 13.3673695 -21.75 6.84375 C-15.42943215 0.52318215 -8.60850869 -0.06784998 0 0 Z " fill="#33C0F4" transform="translate(166.4375,29.46875)"/>
<path d="M0 0 C13.2 0 26.4 0 40 0 C40 46.2 40 92.4 40 140 C26.8 140 13.6 140 0 140 C0 93.8 0 47.6 0 0 Z " fill="#FFFFFF" transform="translate(160,50)"/>
<path d="M0 0 C13.2 0 26.4 0 40 0 C40 33 40 66 40 100 C26.8 100 13.6 100 0 100 C0 67 0 34 0 0 Z " fill="#FEFEFE" transform="translate(100,90)"/>
<path d="M0 0 C13.2 0 26.4 0 40 0 C40 19.8 40 39.6 40 60 C26.8 60 13.6 60 0 60 C0 40.2 0 20.4 0 0 Z " fill="#FFFFFF" transform="translate(40,130)"/>
</svg>
